<svg width="795" height="494" viewBox="0 0 795 494" fill="none" xmlns="http://www.w3.org/2000/svg">
<circle cx="125" cy="369" r="125" fill="#FDDA5F"/>
<rect x="696" y="110.096" width="70" height="70" rx="11" transform="rotate(-44.5377 696 110.096)" fill="#C2B3FF"/>
<g filter="url(#filter0_i)">
<rect x="96" width="650" height="400" rx="32" fill="#EFCDCF"/>
</g>
<path d="M175 15H708C720.703 15 731 25.2975 731 38V362C731 374.703 720.703 385 708 385H175V15Z" fill="white"/>
<path d="M176 16H708C720.15 16 730 25.8497 730 38V362C730 374.15 720.15 384 708 384H176V16Z" stroke="black" stroke-opacity="0.2" stroke-width="2"/>
<path d="M193.852 278.12C192.988 278.12 192.264 277.972 191.68 277.676C191.096 277.38 190.596 276.968 190.18 276.44L191.476 274.976C191.876 275.504 192.28 275.86 192.688 276.044C193.104 276.228 193.52 276.32 193.936 276.32C194.248 276.32 194.504 276.264 194.704 276.152C194.904 276.04 195.004 275.872 195.004 275.648C195.004 275.456 194.92 275.296 194.752 275.168C194.592 275.04 194.388 274.94 194.14 274.868C193.892 274.788 193.64 274.72 193.384 274.664C192.456 274.464 191.764 274.148 191.308 273.716C190.852 273.284 190.624 272.712 190.624 272C190.624 271.48 190.772 271.028 191.068 270.644C191.372 270.252 191.768 269.948 192.256 269.732C192.744 269.508 193.268 269.396 193.828 269.396C194.676 269.396 195.348 269.528 195.844 269.792C196.34 270.048 196.74 270.4 197.044 270.848L195.736 272.108C195.48 271.812 195.196 271.592 194.884 271.448C194.572 271.296 194.248 271.22 193.912 271.22C193.576 271.22 193.308 271.276 193.108 271.388C192.908 271.5 192.808 271.664 192.808 271.88C192.808 272.048 192.876 272.188 193.012 272.3C193.156 272.412 193.336 272.504 193.552 272.576C193.768 272.64 193.992 272.696 194.224 272.744C194.808 272.856 195.32 273.02 195.76 273.236C196.208 273.452 196.556 273.736 196.804 274.088C197.052 274.432 197.176 274.86 197.176 275.372C197.176 275.964 197.032 276.464 196.744 276.872C196.456 277.28 196.06 277.592 195.556 277.808C195.06 278.016 194.492 278.12 193.852 278.12ZM200.629 278.132C199.925 278.132 199.373 277.908 198.973 277.46C198.581 277.004 198.385 276.368 198.385 275.552V271.616H200.425V275.312C200.425 275.672 200.509 275.952 200.677 276.152C200.853 276.352 201.101 276.452 201.421 276.452C201.733 276.452 201.989 276.356 202.189 276.164C202.389 275.972 202.489 275.728 202.489 275.432V271.616H204.529V278H202.621L202.561 277.208C202.353 277.488 202.077 277.712 201.733 277.88C201.389 278.048 201.021 278.132 200.629 278.132ZM210.162 278.132C209.754 278.132 209.374 278.06 209.022 277.916C208.678 277.764 208.398 277.568 208.182 277.328L208.122 277.988H206.25V269.12H208.29V272.24C208.506 272.016 208.774 271.836 209.094 271.7C209.414 271.556 209.75 271.484 210.102 271.484C210.654 271.484 211.142 271.628 211.566 271.916C211.998 272.204 212.334 272.6 212.574 273.104C212.822 273.6 212.946 274.168 212.946 274.808C212.946 275.456 212.826 276.032 212.586 276.536C212.346 277.032 212.014 277.424 211.59 277.712C211.174 277.992 210.698 278.132 210.162 278.132ZM209.598 276.428C210.014 276.428 210.346 276.284 210.594 275.996C210.842 275.7 210.966 275.304 210.966 274.808C210.966 274.312 210.842 273.92 210.594 273.632C210.346 273.336 210.014 273.188 209.598 273.188C209.182 273.188 208.85 273.336 208.602 273.632C208.354 273.92 208.23 274.312 208.23 274.808C208.23 275.304 208.354 275.7 208.602 275.996C208.85 276.284 209.182 276.428 209.598 276.428ZM215.359 270.464C214.983 270.464 214.691 270.376 214.483 270.2C214.275 270.016 214.171 269.76 214.171 269.432C214.171 269.128 214.275 268.88 214.483 268.688C214.699 268.496 214.991 268.4 215.359 268.4C215.735 268.4 216.027 268.492 216.235 268.676C216.451 268.852 216.559 269.104 216.559 269.432C216.559 269.736 216.451 269.984 216.235 270.176C216.027 270.368 215.735 270.464 215.359 270.464ZM213.667 280.544L212.887 278.972C213.263 278.972 213.555 278.924 213.763 278.828C213.971 278.74 214.119 278.584 214.207 278.36C214.295 278.136 214.339 277.824 214.339 277.424V271.616H216.379V277.916C216.379 278.828 216.147 279.492 215.683 279.908C215.219 280.332 214.547 280.544 213.667 280.544ZM221.287 278.12C220.575 278.12 219.955 277.98 219.427 277.7C218.907 277.412 218.503 277.02 218.215 276.524C217.927 276.028 217.783 275.464 217.783 274.832C217.783 274.176 217.923 273.6 218.203 273.104C218.483 272.6 218.867 272.204 219.355 271.916C219.843 271.628 220.399 271.484 221.023 271.484C221.623 271.484 222.155 271.624 222.619 271.904C223.083 272.184 223.443 272.568 223.699 273.056C223.955 273.544 224.079 274.1 224.071 274.724L224.059 275.24H219.751C219.855 275.584 220.055 275.856 220.351 276.056C220.655 276.256 221.043 276.356 221.515 276.356C221.779 276.356 222.011 276.32 222.211 276.248C222.419 276.168 222.639 276.036 222.871 275.852L223.819 277.196C223.419 277.524 223.007 277.76 222.583 277.904C222.159 278.048 221.727 278.12 221.287 278.12ZM221.059 273.164C220.331 273.164 219.887 273.492 219.727 274.148H222.199V274.136C222.183 273.856 222.067 273.624 221.851 273.44C221.643 273.256 221.379 273.164 221.059 273.164ZM228.09 278.12C227.458 278.12 226.894 277.976 226.398 277.688C225.91 277.4 225.522 277.008 225.234 276.512C224.954 276.008 224.814 275.44 224.814 274.808C224.814 274.168 224.954 273.6 225.234 273.104C225.522 272.6 225.91 272.204 226.398 271.916C226.894 271.628 227.458 271.484 228.09 271.484C228.658 271.484 229.182 271.584 229.662 271.784C230.142 271.976 230.522 272.248 230.802 272.6L229.698 273.92C229.538 273.728 229.334 273.568 229.086 273.44C228.846 273.312 228.574 273.248 228.27 273.248C227.838 273.248 227.486 273.396 227.214 273.692C226.942 273.98 226.806 274.348 226.806 274.796C226.806 275.236 226.942 275.608 227.214 275.912C227.486 276.208 227.838 276.356 228.27 276.356C228.574 276.356 228.842 276.3 229.074 276.188C229.314 276.068 229.522 275.904 229.698 275.696L230.79 277.028C230.51 277.364 230.126 277.632 229.638 277.832C229.158 278.024 228.642 278.12 228.09 278.12ZM232.312 278V273.38H231.208V271.616H232.312V270.008H234.352V271.616H235.54V273.38H234.352V278H232.312ZM239.043 278.12C238.403 278.12 237.839 278.02 237.351 277.82C236.871 277.62 236.487 277.352 236.199 277.016L237.423 275.96C237.671 276.208 237.951 276.388 238.263 276.5C238.583 276.612 238.879 276.668 239.151 276.668C239.359 276.668 239.519 276.628 239.631 276.548C239.743 276.46 239.799 276.348 239.799 276.212C239.799 276.06 239.731 275.944 239.595 275.864C239.451 275.784 239.115 275.676 238.587 275.54C237.851 275.356 237.307 275.092 236.955 274.748C236.787 274.588 236.659 274.404 236.571 274.196C236.483 273.98 236.439 273.744 236.439 273.488C236.439 273.08 236.559 272.728 236.799 272.432C237.039 272.128 237.355 271.896 237.747 271.736C238.147 271.568 238.571 271.484 239.019 271.484C239.555 271.484 240.051 271.572 240.507 271.748C240.971 271.916 241.371 272.148 241.707 272.444L240.651 273.632C240.443 273.44 240.187 273.272 239.883 273.128C239.587 272.984 239.299 272.912 239.019 272.912C238.603 272.912 238.395 273.064 238.395 273.368C238.395 273.536 238.479 273.668 238.647 273.764C238.719 273.804 238.843 273.856 239.019 273.92C239.195 273.976 239.439 274.048 239.751 274.136C240.127 274.24 240.451 274.36 240.723 274.496C240.995 274.624 241.211 274.776 241.371 274.952C241.627 275.232 241.755 275.576 241.755 275.984C241.755 276.4 241.635 276.768 241.395 277.088C241.163 277.408 240.843 277.66 240.435 277.844C240.027 278.028 239.563 278.12 239.043 278.12Z" fill="black"/>
<g filter="url(#filter1_ii)">
<rect x="275" y="292" width="77" height="77" rx="12" fill="#9DE0DF"/>
</g>
<path d="M333.919 317.419C331.954 314.801 327.571 314.077 321.835 315.402C321.712 315.107 321.585 314.818 321.454 314.536C321.919 314.034 322.198 313.388 322.245 312.706C322.293 312.024 322.106 311.347 321.715 310.785C321.324 310.224 320.754 309.813 320.098 309.621C319.442 309.429 318.739 309.466 318.108 309.728C316.821 308.582 315.443 308 314.003 308C312.35 308 310.78 308.763 309.337 310.267C308.129 311.528 307.066 313.254 306.171 315.402C300.436 314.077 296.052 314.801 294.088 317.419C291.854 320.397 293.132 325.259 297.498 330.5C297.259 330.786 297.029 331.073 296.806 331.36C296.173 331.183 295.499 331.22 294.889 331.464C294.278 331.708 293.765 332.145 293.428 332.71C293.091 333.274 292.948 333.933 293.023 334.586C293.097 335.239 293.384 335.85 293.839 336.324C292.643 339.263 292.726 341.764 294.088 343.58C295.409 345.342 297.825 346.246 301.011 346.246C302.561 346.246 304.294 346.031 306.171 345.597C307.066 347.746 308.129 349.472 309.337 350.732C310.78 352.237 312.35 353 314.003 353C315.657 353 317.227 352.237 318.669 350.733C319.878 349.473 320.941 347.747 321.835 345.599C322.237 345.691 322.633 345.774 323.024 345.847C323.107 346.553 323.438 347.207 323.958 347.692C324.477 348.177 325.153 348.461 325.863 348.495C326.573 348.528 327.272 348.308 327.835 347.874C328.398 347.44 328.789 346.82 328.937 346.125C331.178 345.821 332.894 344.949 333.919 343.581C336.152 340.603 334.875 335.741 330.509 330.5C334.875 325.258 336.152 320.397 333.919 317.419ZM332.719 318.319C334.456 320.636 333.223 324.82 329.509 329.353C327.855 327.552 326.052 325.893 324.12 324.394C323.767 321.665 323.17 319.07 322.378 316.817C327.338 315.711 331.171 316.256 332.719 318.319V318.319ZM320.916 343.818C319.152 343.325 317.425 342.709 315.748 341.972C317.37 341.135 318.949 340.214 320.476 339.215C321.135 338.784 321.781 338.34 322.416 337.884C322.092 339.903 321.59 341.888 320.916 343.818L320.916 343.818ZM307.09 343.818C306.416 341.888 305.914 339.902 305.59 337.884C306.223 338.339 306.87 338.782 307.53 339.214C309.058 340.214 310.636 341.135 312.258 341.972C310.581 342.709 308.855 343.326 307.091 343.818L307.09 343.818ZM307.09 317.182C308.854 317.674 310.581 318.291 312.258 319.028C310.635 319.865 309.057 320.786 307.53 321.785C306.871 322.216 306.225 322.659 305.59 323.116C305.914 321.097 306.416 319.112 307.091 317.182L307.09 317.182ZM308.351 337.959C307.299 337.271 306.275 336.547 305.301 335.804C304.904 332.279 304.904 328.721 305.301 325.196C306.275 324.453 307.299 323.728 308.351 323.041C310.165 321.852 312.053 320.781 314.003 319.833C315.954 320.781 317.842 321.853 319.656 323.041C320.707 323.728 321.731 324.453 322.706 325.196C322.905 326.957 323.004 328.728 323.003 330.5C323.004 332.272 322.905 334.043 322.706 335.804C321.731 336.547 320.707 337.272 319.656 337.959C317.842 339.147 315.954 340.219 314.003 341.167C312.053 340.219 310.165 339.147 308.351 337.959L308.351 337.959ZM303.666 334.501C302.178 333.269 300.78 331.932 299.482 330.5C300.78 329.068 302.178 327.731 303.667 326.499C303.559 327.815 303.503 329.154 303.503 330.5C303.503 331.846 303.559 333.184 303.667 334.501L303.666 334.501ZM320.916 317.182C321.59 319.112 322.092 321.097 322.416 323.116C321.783 322.661 321.136 322.218 320.476 321.785C318.949 320.786 317.371 319.865 315.748 319.028C317.425 318.291 319.152 317.674 320.916 317.182ZM324.34 326.499C325.828 327.731 327.227 329.068 328.524 330.5C327.227 331.932 325.828 333.269 324.34 334.501C324.448 333.185 324.503 331.846 324.503 330.5C324.503 329.154 324.448 327.816 324.34 326.499ZM320.753 312.5C320.753 312.797 320.665 313.087 320.501 313.333C320.336 313.58 320.101 313.772 319.827 313.886C319.553 313.999 319.252 314.029 318.961 313.971C318.67 313.913 318.402 313.77 318.193 313.561C317.983 313.351 317.84 313.084 317.782 312.793C317.724 312.502 317.754 312.2 317.867 311.926C317.981 311.652 318.173 311.418 318.42 311.253C318.667 311.088 318.957 311 319.253 311C319.651 311 320.032 311.159 320.313 311.44C320.595 311.721 320.753 312.102 320.753 312.5ZM314.003 309.5C314.985 309.5 315.952 309.89 316.888 310.658C316.493 311.164 316.271 311.783 316.255 312.425C316.238 313.067 316.428 313.697 316.797 314.222C317.165 314.748 317.692 315.142 318.301 315.345C318.91 315.549 319.568 315.552 320.178 315.353C320.242 315.493 320.304 315.635 320.366 315.778C318.183 316.401 316.055 317.201 314.003 318.17C311.951 317.201 309.823 316.4 307.64 315.778C309.35 311.776 311.644 309.5 314.003 309.5ZM295.288 318.319C296.835 316.257 300.668 315.711 305.629 316.818C304.836 319.07 304.24 321.664 303.887 324.393C301.955 325.892 300.152 327.551 298.497 329.353C294.784 324.82 293.55 320.636 295.288 318.319ZM296.003 332.75C296.3 332.75 296.59 332.838 296.837 333.003C297.083 333.168 297.276 333.402 297.389 333.676C297.503 333.95 297.532 334.252 297.474 334.543C297.417 334.834 297.274 335.101 297.064 335.311C296.854 335.52 296.587 335.663 296.296 335.721C296.005 335.779 295.703 335.749 295.429 335.636C295.155 335.522 294.921 335.33 294.756 335.083C294.591 334.837 294.503 334.547 294.503 334.25C294.504 333.852 294.662 333.471 294.943 333.19C295.224 332.909 295.606 332.75 296.003 332.75ZM295.288 342.681C294.073 341.061 294.463 338.875 295.136 337.122C295.777 337.315 296.464 337.289 297.088 337.047C297.713 336.805 298.238 336.361 298.58 335.786C298.923 335.211 299.063 334.538 298.979 333.874C298.895 333.21 298.591 332.593 298.116 332.122C298.24 331.963 298.367 331.805 298.497 331.647C300.151 333.448 301.954 335.107 303.887 336.606C304.239 339.335 304.836 341.93 305.629 344.183C300.669 345.289 296.835 344.744 295.288 342.681ZM314.003 351.5C311.644 351.5 309.35 349.224 307.64 345.222C309.823 344.6 311.951 343.799 314.003 342.83C316.056 343.799 318.184 344.6 320.367 345.222C318.657 349.224 316.363 351.5 314.003 351.5ZM326.003 347C325.707 347 325.417 346.912 325.17 346.747C324.923 346.582 324.731 346.348 324.617 346.074C324.504 345.8 324.474 345.498 324.532 345.207C324.59 344.916 324.733 344.649 324.943 344.439C325.152 344.23 325.42 344.087 325.711 344.029C326.002 343.971 326.303 344.001 326.577 344.114C326.851 344.228 327.086 344.42 327.251 344.667C327.415 344.913 327.503 345.203 327.503 345.5C327.503 345.898 327.345 346.279 327.063 346.56C326.782 346.841 326.401 347 326.003 347ZM332.718 342.681C331.959 343.695 330.636 344.358 328.871 344.621C328.69 344.03 328.331 343.509 327.842 343.13C327.354 342.751 326.76 342.533 326.142 342.504C325.525 342.475 324.914 342.638 324.392 342.97C323.871 343.302 323.465 343.787 323.229 344.359C322.949 344.306 322.665 344.247 322.378 344.182C323.17 341.93 323.767 339.336 324.119 336.607C326.052 335.108 327.855 333.449 329.509 331.647C333.223 336.18 334.456 340.364 332.718 342.681Z" fill="white"/>
<path d="M314.003 324.5C312.817 324.5 311.657 324.852 310.67 325.511C309.683 326.17 308.914 327.108 308.46 328.204C308.006 329.3 307.887 330.507 308.119 331.671C308.35 332.834 308.922 333.904 309.761 334.743C310.6 335.582 311.669 336.153 312.833 336.385C313.997 336.616 315.203 336.497 316.299 336.043C317.396 335.589 318.333 334.82 318.992 333.833C319.651 332.847 320.003 331.687 320.003 330.5C320.002 328.909 319.369 327.384 318.244 326.259C317.119 325.135 315.594 324.502 314.003 324.5ZM314.003 335C313.113 335 312.243 334.736 311.503 334.242C310.763 333.747 310.186 333.044 309.846 332.222C309.505 331.4 309.416 330.495 309.59 329.622C309.763 328.749 310.192 327.947 310.821 327.318C311.451 326.689 312.252 326.26 313.125 326.086C313.998 325.913 314.903 326.002 315.725 326.343C316.548 326.683 317.25 327.26 317.745 328C318.239 328.74 318.503 329.61 318.503 330.5C318.502 331.693 318.027 332.837 317.184 333.68C316.34 334.524 315.196 334.999 314.003 335Z" fill="white"/>
<g filter="url(#filter2_ii)">
<rect x="190" y="292" width="77" height="77" rx="12" fill="#EFCDCF"/>
</g>
<path d="M239.686 347.331H241.004V348.649H239.686V347.331Z" fill="white"/>
<path d="M213.978 308C212.887 308 212 308.887 212 309.978V311.955H213.318V309.978C213.318 309.614 213.614 309.318 213.978 309.318H216.614V347.331H213.978C213.614 347.331 213.318 347.035 213.318 346.672V313.273H212V346.672C212 347.762 212.887 348.649 213.978 348.649H216.614V353H218.069L219.91 352.202L221.751 353H223.206V348.649H238.367V347.331H217.933V309.318H244.3V347.331H242.322V348.649H245.618V308H213.978ZM221.888 348.649V351.622L219.91 350.765L217.933 351.622V348.649H221.888Z" fill="white"/>
<path d="M227.163 321.458L224.028 329.69L225.26 330.159L226.015 328.176H229.506L230.253 330.158L231.487 329.692L228.379 321.457L227.163 321.458ZM226.517 326.858L227.768 323.573L229.008 326.858H226.517Z" fill="white"/>
<path d="M236.695 324.613C236.255 324.332 235.733 324.169 235.173 324.169C233.607 324.169 232.333 325.443 232.333 327.009C232.333 328.574 233.607 329.848 235.173 329.848C235.733 329.848 236.255 329.685 236.695 329.405V330.138H238.013V323.879H236.695V324.613ZM235.173 328.53C234.335 328.53 233.652 327.847 233.652 327.009C233.652 326.17 234.335 325.487 235.173 325.487C236.012 325.487 236.695 326.17 236.695 327.009C236.695 327.847 236.012 328.53 235.173 328.53Z" fill="white"/>
<path d="M220.569 333.049H241.663V318.547H220.569V333.049ZM221.888 319.865H240.345V331.73H221.888V319.865Z" fill="white"/>
<path d="M241.663 310.637H242.981V311.955H241.663V310.637Z" fill="white"/>
<path d="M241.663 313.273H242.981V314.592H241.663V313.273Z" fill="white"/>
<path d="M191.376 58V46.8H194.256V51.136H198.256V46.8H201.136V58H198.256V53.696H194.256V58H191.376ZM207.716 58.16C206.766 58.16 205.94 57.9733 205.236 57.6C204.542 57.216 204.004 56.6933 203.62 56.032C203.236 55.3707 203.044 54.6187 203.044 53.776C203.044 52.9013 203.23 52.1333 203.604 51.472C203.977 50.8 204.489 50.272 205.14 49.888C205.79 49.504 206.532 49.312 207.364 49.312C208.164 49.312 208.873 49.4987 209.492 49.872C210.11 50.2453 210.59 50.7573 210.932 51.408C211.273 52.0587 211.438 52.8 211.428 53.632L211.412 54.32H205.668C205.806 54.7787 206.073 55.1413 206.468 55.408C206.873 55.6747 207.39 55.808 208.02 55.808C208.372 55.808 208.681 55.76 208.948 55.664C209.225 55.5573 209.518 55.3813 209.828 55.136L211.092 56.928C210.558 57.3653 210.009 57.68 209.444 57.872C208.878 58.064 208.302 58.16 207.716 58.16ZM207.412 51.552C206.441 51.552 205.849 51.9893 205.636 52.864H208.932V52.848C208.91 52.4747 208.756 52.1653 208.468 51.92C208.19 51.6747 207.838 51.552 207.412 51.552ZM213.027 58V46.16H215.747V58H213.027ZM218.011 58V46.16H220.731V58H218.011ZM226.871 58.16C225.986 58.16 225.191 57.968 224.487 57.584C223.794 57.2 223.244 56.6773 222.839 56.016C222.434 55.3547 222.231 54.5973 222.231 53.744C222.231 52.8907 222.434 52.1333 222.839 51.472C223.244 50.8 223.794 50.272 224.487 49.888C225.191 49.504 225.986 49.312 226.871 49.312C227.756 49.312 228.546 49.504 229.239 49.888C229.943 50.272 230.492 50.8 230.887 51.472C231.292 52.1333 231.495 52.8907 231.495 53.744C231.495 54.5973 231.292 55.3547 230.887 56.016C230.492 56.6773 229.943 57.2 229.239 57.584C228.546 57.968 227.756 58.16 226.871 58.16ZM226.871 55.84C227.415 55.84 227.863 55.6427 228.215 55.248C228.567 54.8533 228.743 54.352 228.743 53.744C228.743 53.1253 228.567 52.6187 228.215 52.224C227.863 51.8187 227.415 51.616 226.871 51.616C226.327 51.616 225.874 51.8187 225.511 52.224C225.159 52.6187 224.983 53.1253 224.983 53.744C224.983 54.352 225.159 54.8533 225.511 55.248C225.874 55.6427 226.327 55.84 226.871 55.84ZM238.626 58V46.8H246.562V49.216H241.41V51.152H245.874V53.456H241.41V55.584H246.754V58H238.626ZM248.792 58V46.16H251.512V58H248.792ZM253.777 58V46.16H256.497V58H253.777ZM261.709 58.144C261.005 58.144 260.37 57.9573 259.805 57.584C259.25 57.2 258.807 56.6773 258.477 56.016C258.157 55.344 257.997 54.5813 257.997 53.728C257.997 52.864 258.157 52.1013 258.477 51.44C258.807 50.7787 259.255 50.2613 259.821 49.888C260.397 49.504 261.053 49.312 261.789 49.312C262.343 49.312 262.829 49.4187 263.245 49.632C263.661 49.8453 264.007 50.1227 264.285 50.464V49.488H266.957V58H264.221V57.024C263.933 57.3547 263.575 57.6267 263.149 57.84C262.722 58.0427 262.242 58.144 261.709 58.144ZM262.477 55.888C263.042 55.888 263.485 55.696 263.805 55.312C264.135 54.9173 264.301 54.3893 264.301 53.728C264.301 53.0773 264.135 52.56 263.805 52.176C263.485 51.7813 263.042 51.584 262.477 51.584C261.922 51.584 261.479 51.7813 261.149 52.176C260.829 52.56 260.669 53.0773 260.669 53.728C260.669 54.3893 260.829 54.9173 261.149 55.312C261.479 55.696 261.922 55.888 262.477 55.888ZM269.438 61.248L268.686 60.32C269.123 60.128 269.47 59.8827 269.726 59.584C269.992 59.2853 270.126 59.0293 270.126 58.816C270.126 58.72 270.099 58.6187 270.046 58.512C270.003 58.4053 269.886 58.2827 269.694 58.144C269.438 57.9627 269.262 57.7813 269.166 57.6C269.08 57.4187 269.038 57.216 269.038 56.992C269.038 56.6507 269.16 56.384 269.406 56.192C269.662 55.9893 269.987 55.888 270.382 55.888C270.862 55.888 271.262 56.08 271.582 56.464C271.902 56.8373 272.062 57.3227 272.062 57.92C272.062 58.4 271.95 58.864 271.726 59.312C271.502 59.7707 271.192 60.1707 270.798 60.512C270.403 60.8533 269.95 61.0987 269.438 61.248Z" fill="black"/>
<g filter="url(#filter3_ii)">
<rect x="190" y="112" width="162" height="60" rx="12" fill="#F4D387"/>
</g>
<g filter="url(#filter4_ii)">
<path d="M224.059 126.197C221.918 124.372 218.735 124.701 216.77 126.728L216 127.521L215.231 126.728C213.27 124.701 210.082 124.372 207.942 126.197C205.489 128.29 205.36 132.048 207.555 134.318L215.114 142.122C215.602 142.626 216.395 142.626 216.883 142.122L224.442 134.318C226.641 132.048 226.512 128.29 224.059 126.197Z" fill="#FA8CA6"/>
</g>
<g filter="url(#filter5_ii)">
<rect x="190" y="183" width="162" height="60" rx="12" fill="#F4D387"/>
</g>
<g filter="url(#filter6_ii)">
<path d="M205.083 202.333C203.935 202.333 203 203.268 203 204.417V211.083C203 212.232 203.935 213.167 205.083 213.167H207.583C208.052 213.167 208.484 213.008 208.833 212.745V202.333H205.083Z" fill="#917AEB"/>
<path d="M223 205.458C223 204.958 222.802 204.491 222.458 204.147C222.847 203.721 223.045 203.15 222.991 202.556C222.893 201.497 221.939 200.667 220.818 200.667H215.67C215.925 199.892 216.333 198.473 216.333 197.333C216.333 195.526 214.798 194 213.833 194C212.968 194 212.349 194.488 212.323 194.508C212.224 194.587 212.167 194.707 212.167 194.833V197.659L209.767 202.858L209.667 202.909V211.841C210.345 212.161 211.203 212.333 211.75 212.333H219.399C220.307 212.333 221.101 211.722 221.288 210.878C221.383 210.443 221.328 210.006 221.137 209.626C221.753 209.316 222.167 208.682 222.167 207.958C222.167 207.663 222.099 207.381 221.971 207.125C222.587 206.815 223 206.181 223 205.458Z" fill="#917AEB"/>
</g>
<g filter="url(#filter7_i)">
<rect x="190" y="74" width="137" height="9" rx="4.5" fill="#9DE0DF"/>
</g>
<g filter="url(#filter8_i)">
<rect x="190" y="89" width="84" height="9" rx="4.5" fill="#9DE0DF"/>
</g>
<g filter="url(#filter9_ii)">
<rect x="370" y="28" width="346" height="343" rx="12" fill="#FFF8E7"/>
</g>
<path d="M396.032 210V201.6H398.192V208.116H401.9V210H396.032ZM405.99 210.12C405.278 210.12 404.658 209.98 404.13 209.7C403.61 209.412 403.206 209.02 402.918 208.524C402.63 208.028 402.486 207.464 402.486 206.832C402.486 206.176 402.626 205.6 402.906 205.104C403.186 204.6 403.57 204.204 404.058 203.916C404.546 203.628 405.102 203.484 405.726 203.484C406.326 203.484 406.858 203.624 407.322 203.904C407.786 204.184 408.146 204.568 408.402 205.056C408.658 205.544 408.782 206.1 408.774 206.724L408.762 207.24H404.454C404.558 207.584 404.758 207.856 405.054 208.056C405.358 208.256 405.746 208.356 406.218 208.356C406.482 208.356 406.714 208.32 406.914 208.248C407.122 208.168 407.342 208.036 407.574 207.852L408.522 209.196C408.122 209.524 407.71 209.76 407.286 209.904C406.862 210.048 406.43 210.12 405.99 210.12ZM405.762 205.164C405.034 205.164 404.59 205.492 404.43 206.148H406.902V206.136C406.886 205.856 406.77 205.624 406.554 205.44C406.346 205.256 406.082 205.164 405.762 205.164ZM412.301 210.108C411.773 210.108 411.297 209.968 410.873 209.688C410.457 209.4 410.125 209.008 409.877 208.512C409.637 208.008 409.517 207.436 409.517 206.796C409.517 206.148 409.637 205.576 409.877 205.08C410.125 204.584 410.461 204.196 410.885 203.916C411.317 203.628 411.809 203.484 412.361 203.484C412.777 203.484 413.141 203.564 413.453 203.724C413.765 203.884 414.025 204.092 414.233 204.348V203.616H416.237V210H414.185V209.268C413.969 209.516 413.701 209.72 413.381 209.88C413.061 210.032 412.701 210.108 412.301 210.108ZM412.877 208.416C413.301 208.416 413.633 208.272 413.873 207.984C414.121 207.688 414.245 207.292 414.245 206.796C414.245 206.308 414.121 205.92 413.873 205.632C413.633 205.336 413.301 205.188 412.877 205.188C412.461 205.188 412.129 205.336 411.881 205.632C411.641 205.92 411.521 206.308 411.521 206.796C411.521 207.292 411.641 207.688 411.881 207.984C412.129 208.272 412.461 208.416 412.877 208.416ZM417.942 210V203.616H419.862L419.898 204.564C420.114 204.244 420.386 203.984 420.714 203.784C421.05 203.584 421.406 203.484 421.782 203.484C421.918 203.484 422.05 203.496 422.178 203.52C422.306 203.544 422.422 203.572 422.526 203.604L421.974 205.848C421.886 205.8 421.766 205.756 421.614 205.716C421.462 205.668 421.298 205.644 421.122 205.644C420.786 205.644 420.51 205.756 420.294 205.98C420.086 206.204 419.982 206.496 419.982 206.856V210H417.942ZM423.497 210V203.616H425.405L425.453 204.36C425.677 204.096 425.957 203.884 426.293 203.724C426.637 203.564 426.997 203.484 427.373 203.484C428.093 203.484 428.641 203.708 429.017 204.156C429.401 204.596 429.593 205.236 429.593 206.076V210H427.553V206.244C427.553 205.524 427.245 205.172 426.629 205.188C426.309 205.188 426.045 205.284 425.837 205.476C425.629 205.668 425.525 205.904 425.525 206.184V210H423.497ZM432.336 202.38C431.96 202.38 431.668 202.292 431.46 202.116C431.252 201.932 431.148 201.676 431.148 201.348C431.148 201.052 431.252 200.808 431.46 200.616C431.676 200.424 431.968 200.328 432.336 200.328C432.712 200.328 433.004 200.42 433.212 200.604C433.428 200.78 433.536 201.028 433.536 201.348C433.536 201.652 433.428 201.9 433.212 202.092C433.004 202.284 432.712 202.38 432.336 202.38ZM431.328 210V203.616H433.356V210H431.328ZM435.168 210V203.616H437.076L437.124 204.36C437.348 204.096 437.628 203.884 437.964 203.724C438.308 203.564 438.668 203.484 439.044 203.484C439.764 203.484 440.312 203.708 440.688 204.156C441.072 204.596 441.264 205.236 441.264 206.076V210H439.224V206.244C439.224 205.524 438.916 205.172 438.3 205.188C437.98 205.188 437.716 205.284 437.508 205.476C437.3 205.668 437.196 205.904 437.196 206.184V210H435.168ZM445.796 212.76C445.26 212.76 444.728 212.684 444.2 212.532C443.68 212.38 443.256 212.18 442.928 211.932L443.636 210.528C443.892 210.696 444.176 210.828 444.488 210.924C444.808 211.028 445.148 211.08 445.508 211.08C446.1 211.08 446.536 210.948 446.816 210.684C447.096 210.428 447.236 210.028 447.236 209.484V209.208C447.02 209.424 446.748 209.596 446.42 209.724C446.1 209.852 445.76 209.916 445.4 209.916C444.824 209.916 444.312 209.784 443.864 209.52C443.416 209.256 443.06 208.888 442.796 208.416C442.54 207.944 442.412 207.396 442.412 206.772C442.412 206.132 442.54 205.568 442.796 205.08C443.052 204.584 443.4 204.196 443.84 203.916C444.28 203.628 444.784 203.484 445.352 203.484C445.76 203.484 446.136 203.56 446.48 203.712C446.824 203.856 447.104 204.044 447.32 204.276L447.356 203.616H449.276V209.46C449.276 210.508 448.964 211.32 448.34 211.896C447.724 212.472 446.876 212.76 445.796 212.76ZM445.856 208.38C446.296 208.38 446.644 208.24 446.9 207.96C447.156 207.672 447.284 207.28 447.284 206.784C447.284 206.296 447.156 205.908 446.9 205.62C446.644 205.332 446.296 205.188 445.856 205.188C445.416 205.188 445.068 205.332 444.812 205.62C444.556 205.908 444.428 206.296 444.428 206.784C444.428 207.272 444.556 207.66 444.812 207.948C445.068 208.236 445.416 208.38 445.856 208.38ZM453.944 210L457.28 201.6H459.08L462.38 210H460.208L459.644 208.476H456.632L456.068 210H453.944ZM457.592 205.884L457.22 206.88H459.056L458.672 205.86C458.584 205.604 458.492 205.344 458.396 205.08C458.308 204.816 458.224 204.548 458.144 204.276C458.064 204.54 457.98 204.8 457.892 205.056C457.804 205.312 457.704 205.588 457.592 205.884ZM465.762 210.12C465.13 210.12 464.566 209.976 464.07 209.688C463.582 209.4 463.194 209.008 462.906 208.512C462.626 208.008 462.486 207.44 462.486 206.808C462.486 206.168 462.626 205.6 462.906 205.104C463.194 204.6 463.582 204.204 464.07 203.916C464.566 203.628 465.13 203.484 465.762 203.484C466.33 203.484 466.854 203.584 467.334 203.784C467.814 203.976 468.194 204.248 468.474 204.6L467.37 205.92C467.21 205.728 467.006 205.568 466.758 205.44C466.518 205.312 466.246 205.248 465.942 205.248C465.51 205.248 465.158 205.396 464.886 205.692C464.614 205.98 464.478 206.348 464.478 206.796C464.478 207.236 464.614 207.608 464.886 207.912C465.158 208.208 465.51 208.356 465.942 208.356C466.246 208.356 466.514 208.3 466.746 208.188C466.986 208.068 467.194 207.904 467.37 207.696L468.462 209.028C468.182 209.364 467.798 209.632 467.31 209.832C466.83 210.024 466.314 210.12 465.762 210.12ZM469.984 210V205.38H468.88V203.616H469.984V202.008H472.024V203.616H473.212V205.38H472.024V210H469.984ZM475.461 202.38C475.085 202.38 474.793 202.292 474.585 202.116C474.377 201.932 474.273 201.676 474.273 201.348C474.273 201.052 474.377 200.808 474.585 200.616C474.801 200.424 475.093 200.328 475.461 200.328C475.837 200.328 476.129 200.42 476.337 200.604C476.553 200.78 476.661 201.028 476.661 201.348C476.661 201.652 476.553 201.9 476.337 202.092C476.129 202.284 475.837 202.38 475.461 202.38ZM474.453 210V203.616H476.481V210H474.453ZM480.237 210L477.573 203.616H479.817L481.101 207.612L482.409 203.616H484.641L481.845 210H480.237ZM486.758 202.38C486.382 202.38 486.09 202.292 485.882 202.116C485.674 201.932 485.57 201.676 485.57 201.348C485.57 201.052 485.674 200.808 485.882 200.616C486.098 200.424 486.39 200.328 486.758 200.328C487.134 200.328 487.426 200.42 487.634 200.604C487.85 200.78 487.958 201.028 487.958 201.348C487.958 201.652 487.85 201.9 487.634 202.092C487.426 202.284 487.134 202.38 486.758 202.38ZM485.75 210V203.616H487.778V210H485.75ZM490.07 210V205.38H488.966V203.616H490.07V202.008H492.11V203.616H493.298V205.38H492.11V210H490.07ZM495.163 212.76L496.447 209.76L493.615 203.616H495.907L497.155 206.592C497.259 206.84 497.347 207.088 497.419 207.336C497.451 207.256 497.479 207.172 497.503 207.084C497.535 206.988 497.571 206.892 497.611 206.796L498.715 203.616H501.007L498.283 210L497.179 212.76H495.163Z" fill="black"/>
<g filter="url(#filter10_ii)">
<rect x="395" y="48" width="140" height="126" rx="12" fill="#AFE2FF"/>
</g>
<g filter="url(#filter11_ii)">
<path d="M423.429 69C419.143 69 415.64 72.5034 415.64 76.7891C415.64 81.0749 419.143 84.5783 423.429 84.5783C427.715 84.5783 431.218 81.0749 431.218 76.7891C431.218 72.5034 427.715 69 423.429 69Z" fill="#00C0ED"/>
<path d="M436.796 90.8028C436.592 90.2926 436.32 89.8164 436.014 89.3742C434.449 87.0612 432.034 85.5306 429.313 85.1565C428.973 85.1225 428.599 85.1905 428.327 85.3946C426.898 86.449 425.198 86.9932 423.429 86.9932C421.66 86.9932 419.96 86.449 418.531 85.3946C418.259 85.1905 417.885 85.0885 417.545 85.1565C414.823 85.5306 412.374 87.0612 410.844 89.3742C410.538 89.8164 410.266 90.3266 410.062 90.8028C409.96 91.0069 409.994 91.245 410.096 91.4491C410.368 91.9252 410.708 92.4015 411.014 92.8096C411.49 93.4559 412 94.0341 412.579 94.5783C413.055 95.0545 413.599 95.4967 414.143 95.9388C416.83 97.9457 420.062 99 423.395 99C426.728 99 429.96 97.9456 432.647 95.9388C433.191 95.5307 433.735 95.0545 434.211 94.5783C434.755 94.0341 435.3 93.4558 435.776 92.8096C436.116 92.3674 436.422 91.9252 436.694 91.4491C436.864 91.245 436.898 91.0068 436.796 90.8028Z" fill="#00C0ED"/>
</g>
<g filter="url(#filter12_i)">
<rect x="410" y="111" width="112" height="9" rx="4.5" fill="#FA8CA6"/>
</g>
<g filter="url(#filter13_i)">
<rect x="453" y="90" width="68.6715" height="9" rx="4.5" fill="#FA8CA6"/>
</g>
<g filter="url(#filter14_ii)">
<rect x="433" y="132" width="65.7142" height="23" rx="11.5" fill="#EFCDCF"/>
</g>
<g filter="url(#filter15_ii)">
<rect x="551" y="48" width="140" height="126" rx="12" fill="#EFCDCF"/>
</g>
<g filter="url(#filter16_i)">
<rect x="567" y="111" width="112" height="9" rx="4.5" fill="#9DE0DF"/>
</g>
<g filter="url(#filter17_i)">
<rect x="610" y="90" width="68.6715" height="9" rx="4.5" fill="#9DE0DF"/>
</g>
<g filter="url(#filter18_ii)">
<rect x="590" y="132" width="65.7142" height="23" rx="11.5" fill="#FA8CA6"/>
</g>
<g filter="url(#filter19_ii)">
<path d="M580.336 79.6625C580.061 79.6375 579.773 79.625 579.498 79.625C579.323 79.625 579.161 79.625 578.986 79.6375C576.873 79.7375 574.911 80.4625 573.298 81.625L567.111 70.3875C566.961 70.1 566.961 69.75 567.123 69.4625C567.298 69.175 567.598 69 567.936 69H573.561C573.898 69 574.198 69.175 574.373 69.4625L579.636 78.4625L580.336 79.6625Z" fill="#917AEB"/>
<path d="M591.886 70.3875L585.698 81.625C584.823 80.9875 583.848 80.4875 582.798 80.15L580.698 76.55L584.611 69.4875C584.786 69.1875 585.098 69 585.436 69H591.061C591.398 69 591.698 69.175 591.873 69.4625C592.036 69.75 592.036 70.1 591.886 70.3875Z" fill="#917AEB"/>
<path d="M579.498 81.5C574.673 81.5 570.748 85.425 570.748 90.25C570.748 95.075 574.673 99 579.498 99C584.323 99 588.248 95.075 588.248 90.25C588.248 85.425 584.323 81.5 579.498 81.5ZM584.232 89.9463L582.531 91.69L582.935 94.1625C582.992 94.5163 582.843 94.8725 582.548 95.08C582.388 95.1925 582.198 95.25 582.01 95.25C581.853 95.25 581.697 95.2113 581.556 95.1325L579.498 93.9963L577.441 95.1338C577.127 95.3075 576.74 95.2875 576.447 95.08C576.153 94.8725 576.005 94.5163 576.061 94.1625L576.465 91.69L574.763 89.9463C574.518 89.695 574.433 89.3263 574.546 88.9938C574.657 88.66 574.945 88.4188 575.293 88.365L577.607 88.0113L578.65 85.79C578.957 85.1313 580.038 85.1313 580.346 85.79L581.388 88.0113L583.702 88.365C584.05 88.4175 584.338 88.66 584.45 88.9938C584.562 89.3263 584.477 89.695 584.232 89.9463Z" fill="#917AEB"/>
</g>
<g filter="url(#filter20_ii)">
<rect x="395" y="222" width="296" height="128" rx="12" fill="#C1F1FD"/>
</g>
<g filter="url(#filter21_i)">
<rect x="419" y="339" width="95" height="9" rx="4.5" transform="rotate(-90 419 339)" fill="#89C2C1"/>
</g>
<g filter="url(#filter22_i)">
<rect x="434" y="339" width="48" height="9" rx="4.5" transform="rotate(-90 434 339)" fill="#00C0ED"/>
</g>
<g filter="url(#filter23_i)">
<rect x="641" y="339" width="22" height="9" rx="4.5" transform="rotate(-90 641 339)" fill="#89C2C1"/>
</g>
<g filter="url(#filter24_i)">
<rect x="656" y="339" width="41" height="9" rx="4.5" transform="rotate(-90 656 339)" fill="#00C0ED"/>
</g>
<g filter="url(#filter25_i)">
<rect x="604" y="339" width="84" height="9" rx="4.5" transform="rotate(-90 604 339)" fill="#89C2C1"/>
</g>
<g filter="url(#filter26_i)">
<rect x="619" y="339" width="84" height="9" rx="4.5" transform="rotate(-90 619 339)" fill="#00C0ED"/>
</g>
<g filter="url(#filter27_i)">
<rect x="567" y="339" width="95" height="9" rx="4.5" transform="rotate(-90 567 339)" fill="#89C2C1"/>
</g>
<g filter="url(#filter28_i)">
<rect x="582" y="339" width="48" height="9" rx="4.5" transform="rotate(-90 582 339)" fill="#00C0ED"/>
</g>
<g filter="url(#filter29_i)">
<rect x="530" y="339" width="40" height="9" rx="4.5" transform="rotate(-90 530 339)" fill="#89C2C1"/>
</g>
<g filter="url(#filter30_i)">
<rect x="545" y="339" width="84" height="9" rx="4.5" transform="rotate(-90 545 339)" fill="#00C0ED"/>
</g>
<g filter="url(#filter31_i)">
<rect x="493" y="339" width="75" height="9" rx="4.5" transform="rotate(-90 493 339)" fill="#89C2C1"/>
</g>
<g filter="url(#filter32_i)">
<rect x="508" y="339" width="53" height="9" rx="4.5" transform="rotate(-90 508 339)" fill="#00C0ED"/>
</g>
<g filter="url(#filter33_i)">
<rect x="456" y="339" width="22" height="9" rx="4.5" transform="rotate(-90 456 339)" fill="#89C2C1"/>
</g>
<g filter="url(#filter34_i)">
<rect x="471" y="339" width="41" height="9" rx="4.5" transform="rotate(-90 471 339)" fill="#00C0ED"/>
</g>
<g filter="url(#filter35_ii)">
<rect x="117" y="56" width="25.1305" height="25.1305" rx="5" transform="rotate(-55 117 56)" fill="url(#paint0_linear)"/>
</g>
<path d="M134.135 49.9574L129.443 53.8217V57.9925C129.443 58.1005 129.486 58.204 129.563 58.2804C129.639 58.3568 129.743 58.3997 129.851 58.3997L132.702 58.3923C132.81 58.3917 132.913 58.3486 132.989 58.2723C133.065 58.196 133.108 58.0927 133.108 57.9851V55.5494C133.108 55.4414 133.15 55.3379 133.227 55.2615C133.303 55.1852 133.407 55.1423 133.515 55.1423H135.143C135.251 55.1423 135.355 55.1852 135.431 55.2615C135.508 55.3379 135.551 55.4414 135.551 55.5494V57.9833C135.55 58.0369 135.561 58.09 135.581 58.1395C135.602 58.1891 135.632 58.2341 135.669 58.2721C135.707 58.31 135.752 58.3401 135.802 58.3607C135.851 58.3812 135.904 58.3918 135.958 58.3918L138.809 58.3997C138.916 58.3997 139.02 58.3568 139.096 58.2804C139.173 58.204 139.216 58.1005 139.216 57.9925V53.8189L134.525 49.9574C134.47 49.9129 134.401 49.8887 134.33 49.8887C134.259 49.8887 134.191 49.9129 134.135 49.9574ZM141.547 52.5839L139.419 50.8303V47.3054C139.419 47.2244 139.387 47.1467 139.33 47.0894C139.273 47.0322 139.195 47 139.114 47H137.689C137.608 47 137.53 47.0322 137.473 47.0894C137.416 47.1467 137.383 47.2244 137.383 47.3054V49.1532L135.105 47.2787C134.886 47.0987 134.612 47.0004 134.329 47.0004C134.046 47.0004 133.771 47.0987 133.553 47.2787L127.111 52.5839C127.08 52.6095 127.054 52.6409 127.036 52.6763C127.017 52.7118 127.005 52.7506 127.001 52.7905C126.998 52.8305 127.002 52.8707 127.014 52.9091C127.025 52.9474 127.045 52.9831 127.07 53.014L127.719 53.8029C127.745 53.8339 127.776 53.8596 127.811 53.8785C127.847 53.8973 127.886 53.909 127.926 53.9129C127.966 53.9167 128.006 53.9127 128.044 53.9009C128.083 53.8892 128.118 53.87 128.149 53.8444L134.135 48.914C134.191 48.8695 134.259 48.8453 134.33 48.8453C134.401 48.8453 134.47 48.8695 134.525 48.914L140.511 53.8444C140.542 53.87 140.578 53.8892 140.616 53.901C140.654 53.9128 140.695 53.9169 140.734 53.9131C140.774 53.9093 140.813 53.8977 140.849 53.879C140.884 53.8602 140.916 53.8346 140.941 53.8037L141.59 53.0148C141.616 52.9837 141.635 52.9478 141.646 52.9093C141.658 52.8708 141.662 52.8304 141.658 52.7903C141.654 52.7503 141.642 52.7115 141.623 52.676C141.604 52.6406 141.578 52.6093 141.547 52.5839Z" fill="white"/>
<path d="M142.1 292.659C140.29 292.659 139.55 291.379 140.45 289.809C140.97 288.899 140.66 287.739 139.75 287.219L138.02 286.229C137.23 285.759 136.21 286.039 135.74 286.829L135.63 287.019C134.73 288.589 133.25 288.589 132.34 287.019L132.23 286.829C131.78 286.039 130.76 285.759 129.97 286.229L128.24 287.219C127.33 287.739 127.02 288.909 127.54 289.819C128.45 291.379 127.71 292.659 125.9 292.659C124.86 292.659 124 293.509 124 294.559V296.319C124 297.359 124.85 298.219 125.9 298.219C127.71 298.219 128.45 299.499 127.54 301.069C127.02 301.979 127.33 303.139 128.24 303.659L129.97 304.649C130.76 305.119 131.78 304.839 132.25 304.049L132.36 303.859C133.26 302.289 134.74 302.289 135.65 303.859L135.76 304.049C136.23 304.839 137.25 305.119 138.04 304.649L139.77 303.659C140.68 303.139 140.99 301.969 140.47 301.069C139.56 299.499 140.3 298.219 142.11 298.219C143.15 298.219 144.01 297.369 144.01 296.319V294.559C144 293.519 143.15 292.659 142.1 292.659ZM134 298.689C132.21 298.689 130.75 297.229 130.75 295.439C130.75 293.649 132.21 292.189 134 292.189C135.79 292.189 137.25 293.649 137.25 295.439C137.25 297.229 135.79 298.689 134 298.689Z" fill="white" fill-opacity="0.5"/>
<path d="M134.692 265.459C134.966 265.523 134.992 265.883 134.724 265.972L133.144 266.492C129.174 267.772 127.084 266.702 125.794 262.732L124.514 258.782C123.234 254.812 124.294 252.712 128.264 251.432L128.788 251.258C129.191 251.125 129.583 251.529 129.469 251.938C129.412 252.14 129.357 252.352 129.304 252.572L128.324 256.762C127.224 261.472 128.834 264.072 133.544 265.192L134.692 265.459Z" fill="white" fill-opacity="0.5"/>
<path d="M139.186 248.709L137.516 248.319C134.176 247.529 132.186 248.179 131.016 250.599C130.716 251.209 130.476 251.949 130.276 252.799L129.296 256.989C128.316 261.169 129.606 263.229 133.776 264.219L135.456 264.619C136.036 264.759 136.576 264.849 137.076 264.889C140.196 265.189 141.856 263.729 142.696 260.119L143.676 255.939C144.656 251.759 143.376 249.689 139.186 248.709ZM137.306 258.829C137.216 259.169 136.916 259.389 136.576 259.389C136.516 259.389 136.456 259.379 136.386 259.369L133.476 258.629C133.076 258.529 132.836 258.119 132.936 257.719C133.036 257.319 133.446 257.079 133.846 257.179L136.756 257.919C137.166 258.019 137.406 258.429 137.306 258.829ZM140.236 255.449C140.146 255.789 139.846 256.009 139.506 256.009C139.446 256.009 139.386 255.999 139.316 255.989L134.466 254.759C134.066 254.659 133.826 254.249 133.926 253.849C134.026 253.449 134.436 253.209 134.836 253.309L139.686 254.539C140.096 254.629 140.336 255.039 140.236 255.449Z" fill="white" fill-opacity="0.5"/>
<path d="M139 207.43H129C126 207.43 124 209.43 124 212.43V218.43C124 221.43 126 223.43 129 223.43H133L137.45 226.39C138.11 226.83 139 226.36 139 225.56V223.43C142 223.43 144 221.43 144 218.43V212.43C144 209.43 142 207.43 139 207.43ZM137.5 216.25H130.5C130.09 216.25 129.75 215.91 129.75 215.5C129.75 215.09 130.09 214.75 130.5 214.75H137.5C137.91 214.75 138.25 215.09 138.25 215.5C138.25 215.91 137.91 216.25 137.5 216.25Z" fill="white" fill-opacity="0.5"/>
<path d="M144 166.85V178.74C144 179.71 143.21 180.6 142.24 180.72L141.93 180.76C140.29 180.98 137.98 181.66 136.12 182.44C135.47 182.71 134.75 182.22 134.75 181.51V167.6C134.75 167.23 134.96 166.89 135.29 166.71C137.12 165.72 139.89 164.84 141.77 164.68H141.83C143.03 164.68 144 165.65 144 166.85Z" fill="white" fill-opacity="0.5"/>
<path d="M132.708 166.71C130.878 165.72 128.108 164.84 126.228 164.68H126.158C124.958 164.68 123.988 165.65 123.988 166.85V178.74C123.988 179.71 124.778 180.6 125.748 180.72L126.058 180.76C127.698 180.98 130.008 181.66 131.868 182.44C132.518 182.71 133.238 182.22 133.238 181.51V167.6C133.238 167.22 133.038 166.89 132.708 166.71ZM126.998 169.74H129.248C129.658 169.74 129.998 170.08 129.998 170.49C129.998 170.91 129.658 171.24 129.248 171.24H126.998C126.588 171.24 126.248 170.91 126.248 170.49C126.248 170.08 126.588 169.74 126.998 169.74ZM129.998 174.24H126.998C126.588 174.24 126.248 173.91 126.248 173.49C126.248 173.08 126.588 172.74 126.998 172.74H129.998C130.408 172.74 130.748 173.08 130.748 173.49C130.748 173.91 130.408 174.24 129.998 174.24Z" fill="white" fill-opacity="0.5"/>
<path d="M133.25 131.75V141H129.81C126.17 141 124 138.83 124 135.19V131.75H133.25Z" fill="white"/>
<path d="M144 126.81V130.25H134.75V121H138.19C141.83 121 144 123.17 144 126.81Z" fill="white"/>
<path d="M133.25 121V130.25H124V126.81C124 123.17 126.17 121 129.81 121H133.25Z" fill="white"/>
<path d="M144 131.75V135.19C144 138.83 141.83 141 138.19 141H134.75V131.75H144Z" fill="white"/>
<defs>
<filter id="filter0_i" x="96" y="-4" width="654" height="404" filterUnits="userSpaceOnUse" color-interpolation-filters="sRGB">
<feFlood flood-opacity="0" result="BackgroundImageFix"/>
<feBlend mode="normal" in="SourceGraphic" in2="BackgroundImageFix" result="shape"/>
<feColorMatrix in="SourceAlpha" type="matrix" values="0 0 0 0 0 0 0 0 0 0 0 0 0 0 0 0 0 0 127 0" result="hardAlpha"/>
<feOffset dx="4" dy="-4"/>
<feGaussianBlur stdDeviation="2"/>
<feComposite in2="hardAlpha" operator="arithmetic" k2="-1" k3="1"/>
<feColorMatrix type="matrix" values="0 0 0 0 0 0 0 0 0 0 0 0 0 0 0 0 0 0 0.25 0"/>
<feBlend mode="normal" in2="shape" result="effect1_innerShadow"/>
</filter>
<filter id="filter1_ii" x="273" y="290" width="81" height="81" filterUnits="userSpaceOnUse" color-interpolation-filters="sRGB">
<feFlood flood-opacity="0" result="BackgroundImageFix"/>
<feBlend mode="normal" in="SourceGraphic" in2="BackgroundImageFix" result="shape"/>
<feColorMatrix in="SourceAlpha" type="matrix" values="0 0 0 0 0 0 0 0 0 0 0 0 0 0 0 0 0 0 127 0" result="hardAlpha"/>
<feOffset dx="2" dy="-2"/>
<feGaussianBlur stdDeviation="2"/>
<feComposite in2="hardAlpha" operator="arithmetic" k2="-1" k3="1"/>
<feColorMatrix type="matrix" values="0 0 0 0 0 0 0 0 0 0 0 0 0 0 0 0 0 0 0.25 0"/>
<feBlend mode="normal" in2="shape" result="effect1_innerShadow"/>
<feColorMatrix in="SourceAlpha" type="matrix" values="0 0 0 0 0 0 0 0 0 0 0 0 0 0 0 0 0 0 127 0" result="hardAlpha"/>
<feOffset dx="-2" dy="2"/>
<feGaussianBlur stdDeviation="2"/>
<feComposite in2="hardAlpha" operator="arithmetic" k2="-1" k3="1"/>
<feColorMatrix type="matrix" values="0 0 0 0 1 0 0 0 0 0.9875 0 0 0 0 0.9875 0 0 0 0.25 0"/>
<feBlend mode="normal" in2="effect1_innerShadow" result="effect2_innerShadow"/>
</filter>
<filter id="filter2_ii" x="188" y="290" width="81" height="81" filterUnits="userSpaceOnUse" color-interpolation-filters="sRGB">
<feFlood flood-opacity="0" result="BackgroundImageFix"/>
<feBlend mode="normal" in="SourceGraphic" in2="BackgroundImageFix" result="shape"/>
<feColorMatrix in="SourceAlpha" type="matrix" values="0 0 0 0 0 0 0 0 0 0 0 0 0 0 0 0 0 0 127 0" result="hardAlpha"/>
<feOffset dx="2" dy="-2"/>
<feGaussianBlur stdDeviation="2"/>
<feComposite in2="hardAlpha" operator="arithmetic" k2="-1" k3="1"/>
<feColorMatrix type="matrix" values="0 0 0 0 0 0 0 0 0 0 0 0 0 0 0 0 0 0 0.25 0"/>
<feBlend mode="normal" in2="shape" result="effect1_innerShadow"/>
<feColorMatrix in="SourceAlpha" type="matrix" values="0 0 0 0 0 0 0 0 0 0 0 0 0 0 0 0 0 0 127 0" result="hardAlpha"/>
<feOffset dx="-2" dy="2"/>
<feGaussianBlur stdDeviation="2"/>
<feComposite in2="hardAlpha" operator="arithmetic" k2="-1" k3="1"/>
<feColorMatrix type="matrix" values="0 0 0 0 1 0 0 0 0 0.9875 0 0 0 0 0.9875 0 0 0 0.25 0"/>
<feBlend mode="normal" in2="effect1_innerShadow" result="effect2_innerShadow"/>
</filter>
<filter id="filter3_ii" x="188" y="110" width="166" height="64" filterUnits="userSpaceOnUse" color-interpolation-filters="sRGB">
<feFlood flood-opacity="0" result="BackgroundImageFix"/>
<feBlend mode="normal" in="SourceGraphic" in2="BackgroundImageFix" result="shape"/>
<feColorMatrix in="SourceAlpha" type="matrix" values="0 0 0 0 0 0 0 0 0 0 0 0 0 0 0 0 0 0 127 0" result="hardAlpha"/>
<feOffset dx="2" dy="-2"/>
<feGaussianBlur stdDeviation="2"/>
<feComposite in2="hardAlpha" operator="arithmetic" k2="-1" k3="1"/>
<feColorMatrix type="matrix" values="0 0 0 0 0 0 0 0 0 0 0 0 0 0 0 0 0 0 0.25 0"/>
<feBlend mode="normal" in2="shape" result="effect1_innerShadow"/>
<feColorMatrix in="SourceAlpha" type="matrix" values="0 0 0 0 0 0 0 0 0 0 0 0 0 0 0 0 0 0 127 0" result="hardAlpha"/>
<feOffset dx="-2" dy="2"/>
<feGaussianBlur stdDeviation="2"/>
<feComposite in2="hardAlpha" operator="arithmetic" k2="-1" k3="1"/>
<feColorMatrix type="matrix" values="0 0 0 0 1 0 0 0 0 0.9875 0 0 0 0 0.9875 0 0 0 0.25 0"/>
<feBlend mode="normal" in2="effect1_innerShadow" result="effect2_innerShadow"/>
</filter>
<filter id="filter4_ii" x="204" y="123" width="24" height="21.5" filterUnits="userSpaceOnUse" color-interpolation-filters="sRGB">
<feFlood flood-opacity="0" result="BackgroundImageFix"/>
<feBlend mode="normal" in="SourceGraphic" in2="BackgroundImageFix" result="shape"/>
<feColorMatrix in="SourceAlpha" type="matrix" values="0 0 0 0 0 0 0 0 0 0 0 0 0 0 0 0 0 0 127 0" result="hardAlpha"/>
<feOffset dx="2" dy="-2"/>
<feGaussianBlur stdDeviation="2"/>
<feComposite in2="hardAlpha" operator="arithmetic" k2="-1" k3="1"/>
<feColorMatrix type="matrix" values="0 0 0 0 0 0 0 0 0 0 0 0 0 0 0 0 0 0 0.25 0"/>
<feBlend mode="normal" in2="shape" result="effect1_innerShadow"/>
<feColorMatrix in="SourceAlpha" type="matrix" values="0 0 0 0 0 0 0 0 0 0 0 0 0 0 0 0 0 0 127 0" result="hardAlpha"/>
<feOffset dx="-2" dy="2"/>
<feGaussianBlur stdDeviation="2"/>
<feComposite in2="hardAlpha" operator="arithmetic" k2="-1" k3="1"/>
<feColorMatrix type="matrix" values="0 0 0 0 1 0 0 0 0 0.9875 0 0 0 0 0.9875 0 0 0 0.25 0"/>
<feBlend mode="normal" in2="effect1_innerShadow" result="effect2_innerShadow"/>
</filter>
<filter id="filter5_ii" x="188" y="181" width="166" height="64" filterUnits="userSpaceOnUse" color-interpolation-filters="sRGB">
<feFlood flood-opacity="0" result="BackgroundImageFix"/>
<feBlend mode="normal" in="SourceGraphic" in2="BackgroundImageFix" result="shape"/>
<feColorMatrix in="SourceAlpha" type="matrix" values="0 0 0 0 0 0 0 0 0 0 0 0 0 0 0 0 0 0 127 0" result="hardAlpha"/>
<feOffset dx="2" dy="-2"/>
<feGaussianBlur stdDeviation="2"/>
<feComposite in2="hardAlpha" operator="arithmetic" k2="-1" k3="1"/>
<feColorMatrix type="matrix" values="0 0 0 0 0 0 0 0 0 0 0 0 0 0 0 0 0 0 0.25 0"/>
<feBlend mode="normal" in2="shape" result="effect1_innerShadow"/>
<feColorMatrix in="SourceAlpha" type="matrix" values="0 0 0 0 0 0 0 0 0 0 0 0 0 0 0 0 0 0 127 0" result="hardAlpha"/>
<feOffset dx="-2" dy="2"/>
<feGaussianBlur stdDeviation="2"/>
<feComposite in2="hardAlpha" operator="arithmetic" k2="-1" k3="1"/>
<feColorMatrix type="matrix" values="0 0 0 0 1 0 0 0 0 0.9875 0 0 0 0 0.9875 0 0 0 0.25 0"/>
<feBlend mode="normal" in2="effect1_innerShadow" result="effect2_innerShadow"/>
</filter>
<filter id="filter6_ii" x="201" y="192" width="24" height="23.1667" filterUnits="userSpaceOnUse" color-interpolation-filters="sRGB">
<feFlood flood-opacity="0" result="BackgroundImageFix"/>
<feBlend mode="normal" in="SourceGraphic" in2="BackgroundImageFix" result="shape"/>
<feColorMatrix in="SourceAlpha" type="matrix" values="0 0 0 0 0 0 0 0 0 0 0 0 0 0 0 0 0 0 127 0" result="hardAlpha"/>
<feOffset dx="2" dy="-2"/>
<feGaussianBlur stdDeviation="2"/>
<feComposite in2="hardAlpha" operator="arithmetic" k2="-1" k3="1"/>
<feColorMatrix type="matrix" values="0 0 0 0 0 0 0 0 0 0 0 0 0 0 0 0 0 0 0.25 0"/>
<feBlend mode="normal" in2="shape" result="effect1_innerShadow"/>
<feColorMatrix in="SourceAlpha" type="matrix" values="0 0 0 0 0 0 0 0 0 0 0 0 0 0 0 0 0 0 127 0" result="hardAlpha"/>
<feOffset dx="-2" dy="2"/>
<feGaussianBlur stdDeviation="2"/>
<feComposite in2="hardAlpha" operator="arithmetic" k2="-1" k3="1"/>
<feColorMatrix type="matrix" values="0 0 0 0 1 0 0 0 0 0.9875 0 0 0 0 0.9875 0 0 0 0.25 0"/>
<feBlend mode="normal" in2="effect1_innerShadow" result="effect2_innerShadow"/>
</filter>
<filter id="filter7_i" x="190" y="72" width="139" height="11" filterUnits="userSpaceOnUse" color-interpolation-filters="sRGB">
<feFlood flood-opacity="0" result="BackgroundImageFix"/>
<feBlend mode="normal" in="SourceGraphic" in2="BackgroundImageFix" result="shape"/>
<feColorMatrix in="SourceAlpha" type="matrix" values="0 0 0 0 0 0 0 0 0 0 0 0 0 0 0 0 0 0 127 0" result="hardAlpha"/>
<feOffset dx="2" dy="-2"/>
<feGaussianBlur stdDeviation="2"/>
<feComposite in2="hardAlpha" operator="arithmetic" k2="-1" k3="1"/>
<feColorMatrix type="matrix" values="0 0 0 0 0 0 0 0 0 0 0 0 0 0 0 0 0 0 0.25 0"/>
<feBlend mode="normal" in2="shape" result="effect1_innerShadow"/>
</filter>
<filter id="filter8_i" x="190" y="87" width="86" height="11" filterUnits="userSpaceOnUse" color-interpolation-filters="sRGB">
<feFlood flood-opacity="0" result="BackgroundImageFix"/>
<feBlend mode="normal" in="SourceGraphic" in2="BackgroundImageFix" result="shape"/>
<feColorMatrix in="SourceAlpha" type="matrix" values="0 0 0 0 0 0 0 0 0 0 0 0 0 0 0 0 0 0 127 0" result="hardAlpha"/>
<feOffset dx="2" dy="-2"/>
<feGaussianBlur stdDeviation="2"/>
<feComposite in2="hardAlpha" operator="arithmetic" k2="-1" k3="1"/>
<feColorMatrix type="matrix" values="0 0 0 0 0 0 0 0 0 0 0 0 0 0 0 0 0 0 0.25 0"/>
<feBlend mode="normal" in2="shape" result="effect1_innerShadow"/>
</filter>
<filter id="filter9_ii" x="368" y="26" width="350" height="347" filterUnits="userSpaceOnUse" color-interpolation-filters="sRGB">
<feFlood flood-opacity="0" result="BackgroundImageFix"/>
<feBlend mode="normal" in="SourceGraphic" in2="BackgroundImageFix" result="shape"/>
<feColorMatrix in="SourceAlpha" type="matrix" values="0 0 0 0 0 0 0 0 0 0 0 0 0 0 0 0 0 0 127 0" result="hardAlpha"/>
<feOffset dx="2" dy="-2"/>
<feGaussianBlur stdDeviation="2"/>
<feComposite in2="hardAlpha" operator="arithmetic" k2="-1" k3="1"/>
<feColorMatrix type="matrix" values="0 0 0 0 0 0 0 0 0 0 0 0 0 0 0 0 0 0 0.25 0"/>
<feBlend mode="normal" in2="shape" result="effect1_innerShadow"/>
<feColorMatrix in="SourceAlpha" type="matrix" values="0 0 0 0 0 0 0 0 0 0 0 0 0 0 0 0 0 0 127 0" result="hardAlpha"/>
<feOffset dx="-2" dy="2"/>
<feGaussianBlur stdDeviation="2"/>
<feComposite in2="hardAlpha" operator="arithmetic" k2="-1" k3="1"/>
<feColorMatrix type="matrix" values="0 0 0 0 0 0 0 0 0 0 0 0 0 0 0 0 0 0 0.25 0"/>
<feBlend mode="normal" in2="effect1_innerShadow" result="effect2_innerShadow"/>
</filter>
<filter id="filter10_ii" x="393" y="46" width="144" height="130" filterUnits="userSpaceOnUse" color-interpolation-filters="sRGB">
<feFlood flood-opacity="0" result="BackgroundImageFix"/>
<feBlend mode="normal" in="SourceGraphic" in2="BackgroundImageFix" result="shape"/>
<feColorMatrix in="SourceAlpha" type="matrix" values="0 0 0 0 0 0 0 0 0 0 0 0 0 0 0 0 0 0 127 0" result="hardAlpha"/>
<feOffset dx="2" dy="-2"/>
<feGaussianBlur stdDeviation="2"/>
<feComposite in2="hardAlpha" operator="arithmetic" k2="-1" k3="1"/>
<feColorMatrix type="matrix" values="0 0 0 0 0 0 0 0 0 0 0 0 0 0 0 0 0 0 0.25 0"/>
<feBlend mode="normal" in2="shape" result="effect1_innerShadow"/>
<feColorMatrix in="SourceAlpha" type="matrix" values="0 0 0 0 0 0 0 0 0 0 0 0 0 0 0 0 0 0 127 0" result="hardAlpha"/>
<feOffset dx="-2" dy="2"/>
<feGaussianBlur stdDeviation="2"/>
<feComposite in2="hardAlpha" operator="arithmetic" k2="-1" k3="1"/>
<feColorMatrix type="matrix" values="0 0 0 0 1 0 0 0 0 0.9875 0 0 0 0 0.9875 0 0 0 0.25 0"/>
<feBlend mode="normal" in2="effect1_innerShadow" result="effect2_innerShadow"/>
</filter>
<filter id="filter11_ii" x="408" y="67" width="30.8536" height="34" filterUnits="userSpaceOnUse" color-interpolation-filters="sRGB">
<feFlood flood-opacity="0" result="BackgroundImageFix"/>
<feBlend mode="normal" in="SourceGraphic" in2="BackgroundImageFix" result="shape"/>
<feColorMatrix in="SourceAlpha" type="matrix" values="0 0 0 0 0 0 0 0 0 0 0 0 0 0 0 0 0 0 127 0" result="hardAlpha"/>
<feOffset dx="2" dy="-2"/>
<feGaussianBlur stdDeviation="2"/>
<feComposite in2="hardAlpha" operator="arithmetic" k2="-1" k3="1"/>
<feColorMatrix type="matrix" values="0 0 0 0 0 0 0 0 0 0 0 0 0 0 0 0 0 0 0.25 0"/>
<feBlend mode="normal" in2="shape" result="effect1_innerShadow"/>
<feColorMatrix in="SourceAlpha" type="matrix" values="0 0 0 0 0 0 0 0 0 0 0 0 0 0 0 0 0 0 127 0" result="hardAlpha"/>
<feOffset dx="-2" dy="2"/>
<feGaussianBlur stdDeviation="2"/>
<feComposite in2="hardAlpha" operator="arithmetic" k2="-1" k3="1"/>
<feColorMatrix type="matrix" values="0 0 0 0 1 0 0 0 0 0.9875 0 0 0 0 0.9875 0 0 0 0.25 0"/>
<feBlend mode="normal" in2="effect1_innerShadow" result="effect2_innerShadow"/>
</filter>
<filter id="filter12_i" x="410" y="109" width="114" height="11" filterUnits="userSpaceOnUse" color-interpolation-filters="sRGB">
<feFlood flood-opacity="0" result="BackgroundImageFix"/>
<feBlend mode="normal" in="SourceGraphic" in2="BackgroundImageFix" result="shape"/>
<feColorMatrix in="SourceAlpha" type="matrix" values="0 0 0 0 0 0 0 0 0 0 0 0 0 0 0 0 0 0 127 0" result="hardAlpha"/>
<feOffset dx="2" dy="-2"/>
<feGaussianBlur stdDeviation="2"/>
<feComposite in2="hardAlpha" operator="arithmetic" k2="-1" k3="1"/>
<feColorMatrix type="matrix" values="0 0 0 0 0 0 0 0 0 0 0 0 0 0 0 0 0 0 0.25 0"/>
<feBlend mode="normal" in2="shape" result="effect1_innerShadow"/>
</filter>
<filter id="filter13_i" x="453" y="88" width="70.6715" height="11" filterUnits="userSpaceOnUse" color-interpolation-filters="sRGB">
<feFlood flood-opacity="0" result="BackgroundImageFix"/>
<feBlend mode="normal" in="SourceGraphic" in2="BackgroundImageFix" result="shape"/>
<feColorMatrix in="SourceAlpha" type="matrix" values="0 0 0 0 0 0 0 0 0 0 0 0 0 0 0 0 0 0 127 0" result="hardAlpha"/>
<feOffset dx="2" dy="-2"/>
<feGaussianBlur stdDeviation="2"/>
<feComposite in2="hardAlpha" operator="arithmetic" k2="-1" k3="1"/>
<feColorMatrix type="matrix" values="0 0 0 0 0 0 0 0 0 0 0 0 0 0 0 0 0 0 0.25 0"/>
<feBlend mode="normal" in2="shape" result="effect1_innerShadow"/>
</filter>
<filter id="filter14_ii" x="431" y="130" width="69.7142" height="27" filterUnits="userSpaceOnUse" color-interpolation-filters="sRGB">
<feFlood flood-opacity="0" result="BackgroundImageFix"/>
<feBlend mode="normal" in="SourceGraphic" in2="BackgroundImageFix" result="shape"/>
<feColorMatrix in="SourceAlpha" type="matrix" values="0 0 0 0 0 0 0 0 0 0 0 0 0 0 0 0 0 0 127 0" result="hardAlpha"/>
<feOffset dx="2" dy="-2"/>
<feGaussianBlur stdDeviation="2"/>
<feComposite in2="hardAlpha" operator="arithmetic" k2="-1" k3="1"/>
<feColorMatrix type="matrix" values="0 0 0 0 0 0 0 0 0 0 0 0 0 0 0 0 0 0 0.25 0"/>
<feBlend mode="normal" in2="shape" result="effect1_innerShadow"/>
<feColorMatrix in="SourceAlpha" type="matrix" values="0 0 0 0 0 0 0 0 0 0 0 0 0 0 0 0 0 0 127 0" result="hardAlpha"/>
<feOffset dx="-2" dy="2"/>
<feGaussianBlur stdDeviation="2"/>
<feComposite in2="hardAlpha" operator="arithmetic" k2="-1" k3="1"/>
<feColorMatrix type="matrix" values="0 0 0 0 1 0 0 0 0 0.9875 0 0 0 0 0.9875 0 0 0 0.25 0"/>
<feBlend mode="normal" in2="effect1_innerShadow" result="effect2_innerShadow"/>
</filter>
<filter id="filter15_ii" x="549" y="46" width="144" height="130" filterUnits="userSpaceOnUse" color-interpolation-filters="sRGB">
<feFlood flood-opacity="0" result="BackgroundImageFix"/>
<feBlend mode="normal" in="SourceGraphic" in2="BackgroundImageFix" result="shape"/>
<feColorMatrix in="SourceAlpha" type="matrix" values="0 0 0 0 0 0 0 0 0 0 0 0 0 0 0 0 0 0 127 0" result="hardAlpha"/>
<feOffset dx="2" dy="-2"/>
<feGaussianBlur stdDeviation="2"/>
<feComposite in2="hardAlpha" operator="arithmetic" k2="-1" k3="1"/>
<feColorMatrix type="matrix" values="0 0 0 0 0 0 0 0 0 0 0 0 0 0 0 0 0 0 0.25 0"/>
<feBlend mode="normal" in2="shape" result="effect1_innerShadow"/>
<feColorMatrix in="SourceAlpha" type="matrix" values="0 0 0 0 0 0 0 0 0 0 0 0 0 0 0 0 0 0 127 0" result="hardAlpha"/>
<feOffset dx="-2" dy="2"/>
<feGaussianBlur stdDeviation="2"/>
<feComposite in2="hardAlpha" operator="arithmetic" k2="-1" k3="1"/>
<feColorMatrix type="matrix" values="0 0 0 0 1 0 0 0 0 0.9875 0 0 0 0 0.9875 0 0 0 0.25 0"/>
<feBlend mode="normal" in2="effect1_innerShadow" result="effect2_innerShadow"/>
</filter>
<filter id="filter16_i" x="567" y="109" width="114" height="11" filterUnits="userSpaceOnUse" color-interpolation-filters="sRGB">
<feFlood flood-opacity="0" result="BackgroundImageFix"/>
<feBlend mode="normal" in="SourceGraphic" in2="BackgroundImageFix" result="shape"/>
<feColorMatrix in="SourceAlpha" type="matrix" values="0 0 0 0 0 0 0 0 0 0 0 0 0 0 0 0 0 0 127 0" result="hardAlpha"/>
<feOffset dx="2" dy="-2"/>
<feGaussianBlur stdDeviation="2"/>
<feComposite in2="hardAlpha" operator="arithmetic" k2="-1" k3="1"/>
<feColorMatrix type="matrix" values="0 0 0 0 0 0 0 0 0 0 0 0 0 0 0 0 0 0 0.25 0"/>
<feBlend mode="normal" in2="shape" result="effect1_innerShadow"/>
</filter>
<filter id="filter17_i" x="610" y="88" width="70.6715" height="11" filterUnits="userSpaceOnUse" color-interpolation-filters="sRGB">
<feFlood flood-opacity="0" result="BackgroundImageFix"/>
<feBlend mode="normal" in="SourceGraphic" in2="BackgroundImageFix" result="shape"/>
<feColorMatrix in="SourceAlpha" type="matrix" values="0 0 0 0 0 0 0 0 0 0 0 0 0 0 0 0 0 0 127 0" result="hardAlpha"/>
<feOffset dx="2" dy="-2"/>
<feGaussianBlur stdDeviation="2"/>
<feComposite in2="hardAlpha" operator="arithmetic" k2="-1" k3="1"/>
<feColorMatrix type="matrix" values="0 0 0 0 0 0 0 0 0 0 0 0 0 0 0 0 0 0 0.25 0"/>
<feBlend mode="normal" in2="shape" result="effect1_innerShadow"/>
</filter>
<filter id="filter18_ii" x="588" y="130" width="69.7142" height="27" filterUnits="userSpaceOnUse" color-interpolation-filters="sRGB">
<feFlood flood-opacity="0" result="BackgroundImageFix"/>
<feBlend mode="normal" in="SourceGraphic" in2="BackgroundImageFix" result="shape"/>
<feColorMatrix in="SourceAlpha" type="matrix" values="0 0 0 0 0 0 0 0 0 0 0 0 0 0 0 0 0 0 127 0" result="hardAlpha"/>
<feOffset dx="2" dy="-2"/>
<feGaussianBlur stdDeviation="2"/>
<feComposite in2="hardAlpha" operator="arithmetic" k2="-1" k3="1"/>
<feColorMatrix type="matrix" values="0 0 0 0 0 0 0 0 0 0 0 0 0 0 0 0 0 0 0.25 0"/>
<feBlend mode="normal" in2="shape" result="effect1_innerShadow"/>
<feColorMatrix in="SourceAlpha" type="matrix" values="0 0 0 0 0 0 0 0 0 0 0 0 0 0 0 0 0 0 127 0" result="hardAlpha"/>
<feOffset dx="-2" dy="2"/>
<feGaussianBlur stdDeviation="2"/>
<feComposite in2="hardAlpha" operator="arithmetic" k2="-1" k3="1"/>
<feColorMatrix type="matrix" values="0 0 0 0 1 0 0 0 0 0.9875 0 0 0 0 0.9875 0 0 0 0.25 0"/>
<feBlend mode="normal" in2="effect1_innerShadow" result="effect2_innerShadow"/>
</filter>
<filter id="filter19_ii" x="565" y="67" width="28.997" height="34" filterUnits="userSpaceOnUse" color-interpolation-filters="sRGB">
<feFlood flood-opacity="0" result="BackgroundImageFix"/>
<feBlend mode="normal" in="SourceGraphic" in2="BackgroundImageFix" result="shape"/>
<feColorMatrix in="SourceAlpha" type="matrix" values="0 0 0 0 0 0 0 0 0 0 0 0 0 0 0 0 0 0 127 0" result="hardAlpha"/>
<feOffset dx="2" dy="-2"/>
<feGaussianBlur stdDeviation="2"/>
<feComposite in2="hardAlpha" operator="arithmetic" k2="-1" k3="1"/>
<feColorMatrix type="matrix" values="0 0 0 0 0 0 0 0 0 0 0 0 0 0 0 0 0 0 0.25 0"/>
<feBlend mode="normal" in2="shape" result="effect1_innerShadow"/>
<feColorMatrix in="SourceAlpha" type="matrix" values="0 0 0 0 0 0 0 0 0 0 0 0 0 0 0 0 0 0 127 0" result="hardAlpha"/>
<feOffset dx="-2" dy="2"/>
<feGaussianBlur stdDeviation="2"/>
<feComposite in2="hardAlpha" operator="arithmetic" k2="-1" k3="1"/>
<feColorMatrix type="matrix" values="0 0 0 0 1 0 0 0 0 0.9875 0 0 0 0 0.9875 0 0 0 0.25 0"/>
<feBlend mode="normal" in2="effect1_innerShadow" result="effect2_innerShadow"/>
</filter>
<filter id="filter20_ii" x="393" y="220" width="300" height="132" filterUnits="userSpaceOnUse" color-interpolation-filters="sRGB">
<feFlood flood-opacity="0" result="BackgroundImageFix"/>
<feBlend mode="normal" in="SourceGraphic" in2="BackgroundImageFix" result="shape"/>
<feColorMatrix in="SourceAlpha" type="matrix" values="0 0 0 0 0 0 0 0 0 0 0 0 0 0 0 0 0 0 127 0" result="hardAlpha"/>
<feOffset dx="2" dy="-2"/>
<feGaussianBlur stdDeviation="2"/>
<feComposite in2="hardAlpha" operator="arithmetic" k2="-1" k3="1"/>
<feColorMatrix type="matrix" values="0 0 0 0 0 0 0 0 0 0 0 0 0 0 0 0 0 0 0.25 0"/>
<feBlend mode="normal" in2="shape" result="effect1_innerShadow"/>
<feColorMatrix in="SourceAlpha" type="matrix" values="0 0 0 0 0 0 0 0 0 0 0 0 0 0 0 0 0 0 127 0" result="hardAlpha"/>
<feOffset dx="-2" dy="2"/>
<feGaussianBlur stdDeviation="2"/>
<feComposite in2="hardAlpha" operator="arithmetic" k2="-1" k3="1"/>
<feColorMatrix type="matrix" values="0 0 0 0 1 0 0 0 0 0.9875 0 0 0 0 0.9875 0 0 0 0.25 0"/>
<feBlend mode="normal" in2="effect1_innerShadow" result="effect2_innerShadow"/>
</filter>
<filter id="filter21_i" x="419" y="242" width="11" height="97" filterUnits="userSpaceOnUse" color-interpolation-filters="sRGB">
<feFlood flood-opacity="0" result="BackgroundImageFix"/>
<feBlend mode="normal" in="SourceGraphic" in2="BackgroundImageFix" result="shape"/>
<feColorMatrix in="SourceAlpha" type="matrix" values="0 0 0 0 0 0 0 0 0 0 0 0 0 0 0 0 0 0 127 0" result="hardAlpha"/>
<feOffset dx="2" dy="-2"/>
<feGaussianBlur stdDeviation="2"/>
<feComposite in2="hardAlpha" operator="arithmetic" k2="-1" k3="1"/>
<feColorMatrix type="matrix" values="0 0 0 0 0 0 0 0 0 0 0 0 0 0 0 0 0 0 0.25 0"/>
<feBlend mode="normal" in2="shape" result="effect1_innerShadow"/>
</filter>
<filter id="filter22_i" x="434" y="289" width="11" height="50" filterUnits="userSpaceOnUse" color-interpolation-filters="sRGB">
<feFlood flood-opacity="0" result="BackgroundImageFix"/>
<feBlend mode="normal" in="SourceGraphic" in2="BackgroundImageFix" result="shape"/>
<feColorMatrix in="SourceAlpha" type="matrix" values="0 0 0 0 0 0 0 0 0 0 0 0 0 0 0 0 0 0 127 0" result="hardAlpha"/>
<feOffset dx="2" dy="-2"/>
<feGaussianBlur stdDeviation="2"/>
<feComposite in2="hardAlpha" operator="arithmetic" k2="-1" k3="1"/>
<feColorMatrix type="matrix" values="0 0 0 0 0 0 0 0 0 0 0 0 0 0 0 0 0 0 0.25 0"/>
<feBlend mode="normal" in2="shape" result="effect1_innerShadow"/>
</filter>
<filter id="filter23_i" x="641" y="315" width="11" height="24" filterUnits="userSpaceOnUse" color-interpolation-filters="sRGB">
<feFlood flood-opacity="0" result="BackgroundImageFix"/>
<feBlend mode="normal" in="SourceGraphic" in2="BackgroundImageFix" result="shape"/>
<feColorMatrix in="SourceAlpha" type="matrix" values="0 0 0 0 0 0 0 0 0 0 0 0 0 0 0 0 0 0 127 0" result="hardAlpha"/>
<feOffset dx="2" dy="-2"/>
<feGaussianBlur stdDeviation="2"/>
<feComposite in2="hardAlpha" operator="arithmetic" k2="-1" k3="1"/>
<feColorMatrix type="matrix" values="0 0 0 0 0 0 0 0 0 0 0 0 0 0 0 0 0 0 0.25 0"/>
<feBlend mode="normal" in2="shape" result="effect1_innerShadow"/>
</filter>
<filter id="filter24_i" x="656" y="296" width="11" height="43" filterUnits="userSpaceOnUse" color-interpolation-filters="sRGB">
<feFlood flood-opacity="0" result="BackgroundImageFix"/>
<feBlend mode="normal" in="SourceGraphic" in2="BackgroundImageFix" result="shape"/>
<feColorMatrix in="SourceAlpha" type="matrix" values="0 0 0 0 0 0 0 0 0 0 0 0 0 0 0 0 0 0 127 0" result="hardAlpha"/>
<feOffset dx="2" dy="-2"/>
<feGaussianBlur stdDeviation="2"/>
<feComposite in2="hardAlpha" operator="arithmetic" k2="-1" k3="1"/>
<feColorMatrix type="matrix" values="0 0 0 0 0 0 0 0 0 0 0 0 0 0 0 0 0 0 0.25 0"/>
<feBlend mode="normal" in2="shape" result="effect1_innerShadow"/>
</filter>
<filter id="filter25_i" x="604" y="253" width="11" height="86" filterUnits="userSpaceOnUse" color-interpolation-filters="sRGB">
<feFlood flood-opacity="0" result="BackgroundImageFix"/>
<feBlend mode="normal" in="SourceGraphic" in2="BackgroundImageFix" result="shape"/>
<feColorMatrix in="SourceAlpha" type="matrix" values="0 0 0 0 0 0 0 0 0 0 0 0 0 0 0 0 0 0 127 0" result="hardAlpha"/>
<feOffset dx="2" dy="-2"/>
<feGaussianBlur stdDeviation="2"/>
<feComposite in2="hardAlpha" operator="arithmetic" k2="-1" k3="1"/>
<feColorMatrix type="matrix" values="0 0 0 0 0 0 0 0 0 0 0 0 0 0 0 0 0 0 0.25 0"/>
<feBlend mode="normal" in2="shape" result="effect1_innerShadow"/>
</filter>
<filter id="filter26_i" x="619" y="253" width="11" height="86" filterUnits="userSpaceOnUse" color-interpolation-filters="sRGB">
<feFlood flood-opacity="0" result="BackgroundImageFix"/>
<feBlend mode="normal" in="SourceGraphic" in2="BackgroundImageFix" result="shape"/>
<feColorMatrix in="SourceAlpha" type="matrix" values="0 0 0 0 0 0 0 0 0 0 0 0 0 0 0 0 0 0 127 0" result="hardAlpha"/>
<feOffset dx="2" dy="-2"/>
<feGaussianBlur stdDeviation="2"/>
<feComposite in2="hardAlpha" operator="arithmetic" k2="-1" k3="1"/>
<feColorMatrix type="matrix" values="0 0 0 0 0 0 0 0 0 0 0 0 0 0 0 0 0 0 0.25 0"/>
<feBlend mode="normal" in2="shape" result="effect1_innerShadow"/>
</filter>
<filter id="filter27_i" x="567" y="242" width="11" height="97" filterUnits="userSpaceOnUse" color-interpolation-filters="sRGB">
<feFlood flood-opacity="0" result="BackgroundImageFix"/>
<feBlend mode="normal" in="SourceGraphic" in2="BackgroundImageFix" result="shape"/>
<feColorMatrix in="SourceAlpha" type="matrix" values="0 0 0 0 0 0 0 0 0 0 0 0 0 0 0 0 0 0 127 0" result="hardAlpha"/>
<feOffset dx="2" dy="-2"/>
<feGaussianBlur stdDeviation="2"/>
<feComposite in2="hardAlpha" operator="arithmetic" k2="-1" k3="1"/>
<feColorMatrix type="matrix" values="0 0 0 0 0 0 0 0 0 0 0 0 0 0 0 0 0 0 0.25 0"/>
<feBlend mode="normal" in2="shape" result="effect1_innerShadow"/>
</filter>
<filter id="filter28_i" x="582" y="289" width="11" height="50" filterUnits="userSpaceOnUse" color-interpolation-filters="sRGB">
<feFlood flood-opacity="0" result="BackgroundImageFix"/>
<feBlend mode="normal" in="SourceGraphic" in2="BackgroundImageFix" result="shape"/>
<feColorMatrix in="SourceAlpha" type="matrix" values="0 0 0 0 0 0 0 0 0 0 0 0 0 0 0 0 0 0 127 0" result="hardAlpha"/>
<feOffset dx="2" dy="-2"/>
<feGaussianBlur stdDeviation="2"/>
<feComposite in2="hardAlpha" operator="arithmetic" k2="-1" k3="1"/>
<feColorMatrix type="matrix" values="0 0 0 0 0 0 0 0 0 0 0 0 0 0 0 0 0 0 0.25 0"/>
<feBlend mode="normal" in2="shape" result="effect1_innerShadow"/>
</filter>
<filter id="filter29_i" x="530" y="297" width="11" height="42" filterUnits="userSpaceOnUse" color-interpolation-filters="sRGB">
<feFlood flood-opacity="0" result="BackgroundImageFix"/>
<feBlend mode="normal" in="SourceGraphic" in2="BackgroundImageFix" result="shape"/>
<feColorMatrix in="SourceAlpha" type="matrix" values="0 0 0 0 0 0 0 0 0 0 0 0 0 0 0 0 0 0 127 0" result="hardAlpha"/>
<feOffset dx="2" dy="-2"/>
<feGaussianBlur stdDeviation="2"/>
<feComposite in2="hardAlpha" operator="arithmetic" k2="-1" k3="1"/>
<feColorMatrix type="matrix" values="0 0 0 0 0 0 0 0 0 0 0 0 0 0 0 0 0 0 0.25 0"/>
<feBlend mode="normal" in2="shape" result="effect1_innerShadow"/>
</filter>
<filter id="filter30_i" x="545" y="253" width="11" height="86" filterUnits="userSpaceOnUse" color-interpolation-filters="sRGB">
<feFlood flood-opacity="0" result="BackgroundImageFix"/>
<feBlend mode="normal" in="SourceGraphic" in2="BackgroundImageFix" result="shape"/>
<feColorMatrix in="SourceAlpha" type="matrix" values="0 0 0 0 0 0 0 0 0 0 0 0 0 0 0 0 0 0 127 0" result="hardAlpha"/>
<feOffset dx="2" dy="-2"/>
<feGaussianBlur stdDeviation="2"/>
<feComposite in2="hardAlpha" operator="arithmetic" k2="-1" k3="1"/>
<feColorMatrix type="matrix" values="0 0 0 0 0 0 0 0 0 0 0 0 0 0 0 0 0 0 0.25 0"/>
<feBlend mode="normal" in2="shape" result="effect1_innerShadow"/>
</filter>
<filter id="filter31_i" x="493" y="262" width="11" height="77" filterUnits="userSpaceOnUse" color-interpolation-filters="sRGB">
<feFlood flood-opacity="0" result="BackgroundImageFix"/>
<feBlend mode="normal" in="SourceGraphic" in2="BackgroundImageFix" result="shape"/>
<feColorMatrix in="SourceAlpha" type="matrix" values="0 0 0 0 0 0 0 0 0 0 0 0 0 0 0 0 0 0 127 0" result="hardAlpha"/>
<feOffset dx="2" dy="-2"/>
<feGaussianBlur stdDeviation="2"/>
<feComposite in2="hardAlpha" operator="arithmetic" k2="-1" k3="1"/>
<feColorMatrix type="matrix" values="0 0 0 0 0 0 0 0 0 0 0 0 0 0 0 0 0 0 0.25 0"/>
<feBlend mode="normal" in2="shape" result="effect1_innerShadow"/>
</filter>
<filter id="filter32_i" x="508" y="284" width="11" height="55" filterUnits="userSpaceOnUse" color-interpolation-filters="sRGB">
<feFlood flood-opacity="0" result="BackgroundImageFix"/>
<feBlend mode="normal" in="SourceGraphic" in2="BackgroundImageFix" result="shape"/>
<feColorMatrix in="SourceAlpha" type="matrix" values="0 0 0 0 0 0 0 0 0 0 0 0 0 0 0 0 0 0 127 0" result="hardAlpha"/>
<feOffset dx="2" dy="-2"/>
<feGaussianBlur stdDeviation="2"/>
<feComposite in2="hardAlpha" operator="arithmetic" k2="-1" k3="1"/>
<feColorMatrix type="matrix" values="0 0 0 0 0 0 0 0 0 0 0 0 0 0 0 0 0 0 0.25 0"/>
<feBlend mode="normal" in2="shape" result="effect1_innerShadow"/>
</filter>
<filter id="filter33_i" x="456" y="315" width="11" height="24" filterUnits="userSpaceOnUse" color-interpolation-filters="sRGB">
<feFlood flood-opacity="0" result="BackgroundImageFix"/>
<feBlend mode="normal" in="SourceGraphic" in2="BackgroundImageFix" result="shape"/>
<feColorMatrix in="SourceAlpha" type="matrix" values="0 0 0 0 0 0 0 0 0 0 0 0 0 0 0 0 0 0 127 0" result="hardAlpha"/>
<feOffset dx="2" dy="-2"/>
<feGaussianBlur stdDeviation="2"/>
<feComposite in2="hardAlpha" operator="arithmetic" k2="-1" k3="1"/>
<feColorMatrix type="matrix" values="0 0 0 0 0 0 0 0 0 0 0 0 0 0 0 0 0 0 0.25 0"/>
<feBlend mode="normal" in2="shape" result="effect1_innerShadow"/>
</filter>
<filter id="filter34_i" x="471" y="296" width="11" height="43" filterUnits="userSpaceOnUse" color-interpolation-filters="sRGB">
<feFlood flood-opacity="0" result="BackgroundImageFix"/>
<feBlend mode="normal" in="SourceGraphic" in2="BackgroundImageFix" result="shape"/>
<feColorMatrix in="SourceAlpha" type="matrix" values="0 0 0 0 0 0 0 0 0 0 0 0 0 0 0 0 0 0 127 0" result="hardAlpha"/>
<feOffset dx="2" dy="-2"/>
<feGaussianBlur stdDeviation="2"/>
<feComposite in2="hardAlpha" operator="arithmetic" k2="-1" k3="1"/>
<feColorMatrix type="matrix" values="0 0 0 0 0 0 0 0 0 0 0 0 0 0 0 0 0 0 0.25 0"/>
<feBlend mode="normal" in2="shape" result="effect1_innerShadow"/>
</filter>
<filter id="filter35_ii" x="115" y="33.4143" width="39" height="39" filterUnits="userSpaceOnUse" color-interpolation-filters="sRGB">
<feFlood flood-opacity="0" result="BackgroundImageFix"/>
<feBlend mode="normal" in="SourceGraphic" in2="BackgroundImageFix" result="shape"/>
<feColorMatrix in="SourceAlpha" type="matrix" values="0 0 0 0 0 0 0 0 0 0 0 0 0 0 0 0 0 0 127 0" result="hardAlpha"/>
<feOffset dx="2" dy="-2"/>
<feGaussianBlur stdDeviation="2"/>
<feComposite in2="hardAlpha" operator="arithmetic" k2="-1" k3="1"/>
<feColorMatrix type="matrix" values="0 0 0 0 0 0 0 0 0 0 0 0 0 0 0 0 0 0 0.25 0"/>
<feBlend mode="normal" in2="shape" result="effect1_innerShadow"/>
<feColorMatrix in="SourceAlpha" type="matrix" values="0 0 0 0 0 0 0 0 0 0 0 0 0 0 0 0 0 0 127 0" result="hardAlpha"/>
<feOffset dx="-2" dy="2"/>
<feGaussianBlur stdDeviation="2"/>
<feComposite in2="hardAlpha" operator="arithmetic" k2="-1" k3="1"/>
<feColorMatrix type="matrix" values="0 0 0 0 1 0 0 0 0 0.9875 0 0 0 0 0.9875 0 0 0 0.25 0"/>
<feBlend mode="normal" in2="effect1_innerShadow" result="effect2_innerShadow"/>
</filter>
<linearGradient id="paint0_linear" x1="129.565" y1="56" x2="129.565" y2="81.1305" gradientUnits="userSpaceOnUse">
<stop stop-color="#00C0ED"/>
<stop offset="1" stop-color="#917AEB"/>
</linearGradient>
</defs>
</svg>
