<svg width="754" height="569" viewBox="0 0 754 569" fill="none" xmlns="http://www.w3.org/2000/svg">
<circle cx="125" cy="125" r="125" fill="#C1F1FD"/>
<rect x="379" y="519.096" width="70" height="70" rx="11" transform="rotate(-44.5377 379 519.096)" fill="#FED0D4"/>
<g filter="url(#filter0_i)">
<rect x="104" y="125" width="650" height="400" rx="32" fill="#C2B2FF"/>
</g>
<path d="M183 140H716C728.703 140 739 150.297 739 163V487C739 499.703 728.703 510 716 510H183V140Z" fill="#FFF8E7"/>
<path d="M184 141H716C728.15 141 738 150.85 738 163V487C738 499.15 728.15 509 716 509H184V141Z" stroke="black" stroke-opacity="0.2" stroke-width="2"/>
<g filter="url(#filter1_ii)">
<rect x="258" y="406" width="293" height="74" rx="12" fill="#9DE0DF"/>
</g>
<g filter="url(#filter2_i)">
<rect x="289" y="449" width="230" height="9" rx="4.5" fill="#89C2C1"/>
</g>
<g filter="url(#filter3_i)">
<rect x="377.304" y="428" width="141.022" height="9" rx="4.5" fill="#89C2C1"/>
</g>
<g filter="url(#filter4_ii)">
<circle cx="261" cy="443" r="25" fill="#F4D387"/>
</g>
<g filter="url(#filter5_ii)">
<path d="M261.306 432.286C258.245 432.286 255.743 434.788 255.743 437.849C255.743 440.911 258.245 443.413 261.306 443.413C264.367 443.413 266.87 440.911 266.87 437.849C266.87 434.788 264.367 432.286 261.306 432.286Z" fill="#917AEB"/>
<path d="M270.854 447.859C270.709 447.495 270.514 447.155 270.296 446.839C269.178 445.187 267.453 444.093 265.509 443.826C265.267 443.802 264.999 443.85 264.805 443.996C263.784 444.749 262.57 445.138 261.306 445.138C260.043 445.138 258.828 444.749 257.808 443.996C257.613 443.85 257.346 443.777 257.103 443.826C255.16 444.093 253.41 445.187 252.317 446.839C252.098 447.155 251.904 447.519 251.758 447.859C251.685 448.005 251.71 448.175 251.783 448.321C251.977 448.661 252.22 449.001 252.438 449.293C252.779 449.754 253.143 450.167 253.556 450.556C253.896 450.896 254.285 451.212 254.674 451.528C256.593 452.961 258.901 453.714 261.282 453.714C263.663 453.714 265.971 452.961 267.89 451.528C268.279 451.236 268.668 450.896 269.008 450.556C269.397 450.167 269.785 449.754 270.126 449.293C270.369 448.977 270.587 448.661 270.782 448.321C270.903 448.175 270.927 448.005 270.854 447.859Z" fill="#917AEB"/>
</g>
<g filter="url(#filter6_ii)">
<rect x="367" y="318" width="293" height="74" rx="12" fill="#F4D387"/>
</g>
<g filter="url(#filter7_i)">
<rect x="398" y="361" width="230" height="9" rx="4.5" fill="#FA8CA6"/>
</g>
<g filter="url(#filter8_i)">
<rect x="486.304" y="340" width="141.022" height="9" rx="4.5" fill="#FA8CA6"/>
</g>
<g filter="url(#filter9_ii)">
<circle cx="660" cy="355" r="25" fill="#EFCDCF"/>
</g>
<g filter="url(#filter10_ii)">
<path d="M660.306 344.286C657.245 344.286 654.743 346.788 654.743 349.849C654.743 352.911 657.245 355.413 660.306 355.413C663.368 355.413 665.87 352.911 665.87 349.849C665.87 346.788 663.368 344.286 660.306 344.286Z" fill="#FA8CA6"/>
<path d="M669.854 359.859C669.709 359.495 669.514 359.155 669.296 358.839C668.178 357.187 666.453 356.093 664.51 355.826C664.267 355.802 663.999 355.85 663.805 355.996C662.785 356.749 661.57 357.138 660.306 357.138C659.043 357.138 657.828 356.749 656.808 355.996C656.613 355.85 656.346 355.777 656.103 355.826C654.16 356.093 652.41 357.187 651.317 358.839C651.098 359.155 650.904 359.519 650.758 359.859C650.685 360.005 650.71 360.175 650.783 360.321C650.977 360.661 651.22 361.001 651.439 361.293C651.779 361.754 652.143 362.167 652.556 362.556C652.896 362.896 653.285 363.212 653.674 363.528C655.593 364.961 657.901 365.714 660.282 365.714C662.663 365.714 664.971 364.961 666.89 363.528C667.279 363.236 667.668 362.896 668.008 362.556C668.397 362.167 668.786 361.754 669.126 361.293C669.369 360.977 669.587 360.661 669.782 360.321C669.903 360.175 669.927 360.005 669.854 359.859Z" fill="#FA8CA6"/>
</g>
<g filter="url(#filter11_ii)">
<rect x="236" y="160" width="449" height="44" rx="12" fill="#AFE2FF"/>
</g>
<g filter="url(#filter12_i)">
<rect x="313" y="177" width="349" height="9" rx="4.5" fill="#00C0ED"/>
</g>
<g filter="url(#filter13_ii)">
<path d="M268.592 171C265.531 171 263.028 173.502 263.028 176.564C263.028 179.625 265.531 182.127 268.592 182.127C271.653 182.127 274.156 179.625 274.156 176.564C274.156 173.502 271.653 171 268.592 171Z" fill="#00C0ED"/>
<path d="M278.14 186.573C277.994 186.209 277.8 185.869 277.581 185.553C276.464 183.901 274.739 182.808 272.795 182.54C272.552 182.516 272.285 182.565 272.091 182.71C271.07 183.464 269.855 183.852 268.592 183.852C267.329 183.852 266.114 183.464 265.094 182.71C264.899 182.565 264.632 182.492 264.389 182.54C262.445 182.808 260.696 183.901 259.603 185.553C259.384 185.869 259.19 186.233 259.044 186.573C258.971 186.719 258.995 186.889 259.068 187.035C259.263 187.375 259.506 187.715 259.724 188.007C260.064 188.469 260.429 188.882 260.842 189.27C261.182 189.61 261.571 189.926 261.959 190.242C263.879 191.676 266.187 192.429 268.568 192.429C270.949 192.429 273.257 191.675 275.176 190.242C275.565 189.951 275.954 189.61 276.294 189.27C276.682 188.882 277.071 188.468 277.411 188.007C277.654 187.691 277.873 187.375 278.067 187.035C278.189 186.889 278.213 186.719 278.14 186.573Z" fill="#00C0ED"/>
</g>
<g filter="url(#filter14_ii)">
<rect x="258" y="230" width="293" height="74" rx="12" fill="#9DE0DF"/>
</g>
<g filter="url(#filter15_i)">
<rect x="289" y="273" width="230" height="9" rx="4.5" fill="#89C2C1"/>
</g>
<g filter="url(#filter16_i)">
<rect x="377.304" y="252" width="141.022" height="9" rx="4.5" fill="#89C2C1"/>
</g>
<g filter="url(#filter17_ii)">
<circle cx="261" cy="267" r="25" fill="#F4D387"/>
</g>
<g filter="url(#filter18_ii)">
<path d="M261.306 256.286C258.245 256.286 255.743 258.788 255.743 261.849C255.743 264.911 258.245 267.413 261.306 267.413C264.367 267.413 266.87 264.911 266.87 261.849C266.87 258.788 264.367 256.286 261.306 256.286Z" fill="#917AEB"/>
<path d="M270.854 271.859C270.709 271.495 270.514 271.155 270.296 270.839C269.178 269.187 267.453 268.093 265.509 267.826C265.267 267.802 264.999 267.85 264.805 267.996C263.784 268.749 262.57 269.138 261.306 269.138C260.043 269.138 258.828 268.749 257.808 267.996C257.613 267.85 257.346 267.777 257.103 267.826C255.16 268.093 253.41 269.187 252.317 270.839C252.098 271.155 251.904 271.519 251.758 271.859C251.685 272.005 251.71 272.175 251.783 272.321C251.977 272.661 252.22 273.001 252.438 273.293C252.779 273.754 253.143 274.167 253.556 274.556C253.896 274.896 254.285 275.212 254.674 275.528C256.593 276.961 258.901 277.714 261.282 277.714C263.663 277.714 265.971 276.961 267.89 275.528C268.279 275.236 268.668 274.896 269.008 274.556C269.397 274.167 269.785 273.754 270.126 273.293C270.369 272.977 270.587 272.661 270.782 272.321C270.903 272.175 270.927 272.005 270.854 271.859Z" fill="#917AEB"/>
</g>
<g filter="url(#filter19_ii)">
<rect x="125" y="181" width="25.1305" height="25.1305" rx="5" transform="rotate(-55 125 181)" fill="url(#paint0_linear)"/>
</g>
<path d="M142.135 174.957L137.443 178.822V182.992C137.443 183.1 137.486 183.204 137.563 183.28C137.639 183.357 137.743 183.4 137.851 183.4L140.702 183.392C140.81 183.392 140.913 183.349 140.989 183.272C141.065 183.196 141.108 183.093 141.108 182.985V180.549C141.108 180.441 141.15 180.338 141.227 180.262C141.303 180.185 141.407 180.142 141.515 180.142H143.143C143.251 180.142 143.355 180.185 143.431 180.262C143.508 180.338 143.551 180.441 143.551 180.549V182.983C143.55 183.037 143.561 183.09 143.581 183.14C143.602 183.189 143.632 183.234 143.669 183.272C143.707 183.31 143.752 183.34 143.802 183.361C143.851 183.381 143.904 183.392 143.958 183.392L146.809 183.4C146.916 183.4 147.02 183.357 147.096 183.28C147.173 183.204 147.216 183.1 147.216 182.992V178.819L142.525 174.957C142.47 174.913 142.401 174.889 142.33 174.889C142.259 174.889 142.191 174.913 142.135 174.957ZM149.547 177.584L147.419 175.83V172.305C147.419 172.224 147.387 172.147 147.33 172.089C147.273 172.032 147.195 172 147.114 172H145.689C145.608 172 145.53 172.032 145.473 172.089C145.416 172.147 145.383 172.224 145.383 172.305V174.153L143.105 172.279C142.886 172.099 142.612 172 142.329 172C142.046 172 141.771 172.099 141.553 172.279L135.111 177.584C135.08 177.609 135.054 177.641 135.036 177.676C135.017 177.712 135.005 177.751 135.001 177.791C134.998 177.83 135.002 177.871 135.014 177.909C135.025 177.947 135.045 177.983 135.07 178.014L135.719 178.803C135.745 178.834 135.776 178.86 135.811 178.878C135.847 178.897 135.886 178.909 135.926 178.913C135.966 178.917 136.006 178.913 136.044 178.901C136.083 178.889 136.118 178.87 136.149 178.844L142.135 173.914C142.191 173.87 142.259 173.845 142.33 173.845C142.401 173.845 142.47 173.87 142.525 173.914L148.511 178.844C148.542 178.87 148.578 178.889 148.616 178.901C148.654 178.913 148.695 178.917 148.734 178.913C148.774 178.909 148.813 178.898 148.849 178.879C148.884 178.86 148.916 178.835 148.941 178.804L149.59 178.015C149.616 177.984 149.635 177.948 149.646 177.909C149.658 177.871 149.662 177.83 149.658 177.79C149.654 177.75 149.642 177.711 149.623 177.676C149.604 177.641 149.578 177.609 149.547 177.584Z" fill="white"/>
<path d="M150.1 417.659C148.29 417.659 147.55 416.379 148.45 414.809C148.97 413.899 148.66 412.739 147.75 412.219L146.02 411.229C145.23 410.759 144.21 411.039 143.74 411.829L143.63 412.019C142.73 413.589 141.25 413.589 140.34 412.019L140.23 411.829C139.78 411.039 138.76 410.759 137.97 411.229L136.24 412.219C135.33 412.739 135.02 413.909 135.54 414.819C136.45 416.379 135.71 417.659 133.9 417.659C132.86 417.659 132 418.509 132 419.559V421.319C132 422.359 132.85 423.219 133.9 423.219C135.71 423.219 136.45 424.499 135.54 426.069C135.02 426.979 135.33 428.139 136.24 428.659L137.97 429.649C138.76 430.119 139.78 429.839 140.25 429.049L140.36 428.859C141.26 427.289 142.74 427.289 143.65 428.859L143.76 429.049C144.23 429.839 145.25 430.119 146.04 429.649L147.77 428.659C148.68 428.139 148.99 426.969 148.47 426.069C147.56 424.499 148.3 423.219 150.11 423.219C151.15 423.219 152.01 422.369 152.01 421.319V419.559C152 418.519 151.15 417.659 150.1 417.659ZM142 423.689C140.21 423.689 138.75 422.229 138.75 420.439C138.75 418.649 140.21 417.189 142 417.189C143.79 417.189 145.25 418.649 145.25 420.439C145.25 422.229 143.79 423.689 142 423.689Z" fill="white" fill-opacity="0.5"/>
<path d="M142.692 390.459C142.966 390.523 142.992 390.883 142.724 390.972L141.144 391.492C137.174 392.772 135.084 391.702 133.794 387.732L132.514 383.782C131.234 379.812 132.294 377.712 136.264 376.432L136.788 376.258C137.191 376.125 137.583 376.529 137.469 376.938C137.412 377.14 137.357 377.352 137.304 377.572L136.324 381.762C135.224 386.472 136.834 389.072 141.544 390.192L142.692 390.459Z" fill="white" fill-opacity="0.5"/>
<path d="M147.186 373.709L145.516 373.319C142.176 372.529 140.186 373.179 139.016 375.599C138.716 376.209 138.476 376.949 138.276 377.799L137.296 381.989C136.316 386.169 137.606 388.229 141.776 389.219L143.456 389.619C144.036 389.759 144.576 389.849 145.076 389.889C148.196 390.189 149.856 388.729 150.696 385.119L151.676 380.939C152.656 376.759 151.376 374.689 147.186 373.709ZM145.306 383.829C145.216 384.169 144.916 384.389 144.576 384.389C144.516 384.389 144.456 384.379 144.386 384.369L141.476 383.629C141.076 383.529 140.836 383.119 140.936 382.719C141.036 382.319 141.446 382.079 141.846 382.179L144.756 382.919C145.166 383.019 145.406 383.429 145.306 383.829ZM148.236 380.449C148.146 380.789 147.846 381.009 147.506 381.009C147.446 381.009 147.386 380.999 147.316 380.989L142.466 379.759C142.066 379.659 141.826 379.249 141.926 378.849C142.026 378.449 142.436 378.209 142.836 378.309L147.686 379.539C148.096 379.629 148.336 380.039 148.236 380.449Z" fill="white" fill-opacity="0.5"/>
<path d="M147 332.43H137C134 332.43 132 334.43 132 337.43V343.43C132 346.43 134 348.43 137 348.43H141L145.45 351.39C146.11 351.83 147 351.36 147 350.56V348.43C150 348.43 152 346.43 152 343.43V337.43C152 334.43 150 332.43 147 332.43ZM145.5 341.25H138.5C138.09 341.25 137.75 340.91 137.75 340.5C137.75 340.09 138.09 339.75 138.5 339.75H145.5C145.91 339.75 146.25 340.09 146.25 340.5C146.25 340.91 145.91 341.25 145.5 341.25Z" fill="white"/>
<path d="M152 291.85V303.74C152 304.71 151.21 305.6 150.24 305.72L149.93 305.76C148.29 305.98 145.98 306.66 144.12 307.44C143.47 307.71 142.75 307.22 142.75 306.51V292.6C142.75 292.23 142.96 291.89 143.29 291.71C145.12 290.72 147.89 289.84 149.77 289.68H149.83C151.03 289.68 152 290.65 152 291.85Z" fill="white" fill-opacity="0.5"/>
<path d="M140.708 291.71C138.878 290.72 136.108 289.84 134.228 289.68H134.158C132.958 289.68 131.988 290.65 131.988 291.85V303.74C131.988 304.71 132.778 305.6 133.748 305.72L134.058 305.76C135.698 305.98 138.008 306.66 139.868 307.44C140.518 307.71 141.238 307.22 141.238 306.51V292.6C141.238 292.22 141.038 291.89 140.708 291.71ZM134.998 294.74H137.248C137.658 294.74 137.998 295.08 137.998 295.49C137.998 295.91 137.658 296.24 137.248 296.24H134.998C134.588 296.24 134.248 295.91 134.248 295.49C134.248 295.08 134.588 294.74 134.998 294.74ZM137.998 299.24H134.998C134.588 299.24 134.248 298.91 134.248 298.49C134.248 298.08 134.588 297.74 134.998 297.74H137.998C138.408 297.74 138.748 298.08 138.748 298.49C138.748 298.91 138.408 299.24 137.998 299.24Z" fill="white" fill-opacity="0.5"/>
<path d="M141.25 256.75V266H137.81C134.17 266 132 263.83 132 260.19V256.75H141.25Z" fill="white" fill-opacity="0.5"/>
<path d="M152 251.81V255.25H142.75V246H146.19C149.83 246 152 248.17 152 251.81Z" fill="white" fill-opacity="0.5"/>
<path d="M141.25 246V255.25H132V251.81C132 248.17 134.17 246 137.81 246H141.25Z" fill="white" fill-opacity="0.5"/>
<path d="M152 256.75V260.19C152 263.83 149.83 266 146.19 266H142.75V256.75H152Z" fill="white" fill-opacity="0.5"/>
<defs>
<filter id="filter0_i" x="104" y="121" width="654" height="404" filterUnits="userSpaceOnUse" color-interpolation-filters="sRGB">
<feFlood flood-opacity="0" result="BackgroundImageFix"/>
<feBlend mode="normal" in="SourceGraphic" in2="BackgroundImageFix" result="shape"/>
<feColorMatrix in="SourceAlpha" type="matrix" values="0 0 0 0 0 0 0 0 0 0 0 0 0 0 0 0 0 0 127 0" result="hardAlpha"/>
<feOffset dx="4" dy="-4"/>
<feGaussianBlur stdDeviation="2"/>
<feComposite in2="hardAlpha" operator="arithmetic" k2="-1" k3="1"/>
<feColorMatrix type="matrix" values="0 0 0 0 0 0 0 0 0 0 0 0 0 0 0 0 0 0 0.25 0"/>
<feBlend mode="normal" in2="shape" result="effect1_innerShadow"/>
</filter>
<filter id="filter1_ii" x="256" y="404" width="297" height="78" filterUnits="userSpaceOnUse" color-interpolation-filters="sRGB">
<feFlood flood-opacity="0" result="BackgroundImageFix"/>
<feBlend mode="normal" in="SourceGraphic" in2="BackgroundImageFix" result="shape"/>
<feColorMatrix in="SourceAlpha" type="matrix" values="0 0 0 0 0 0 0 0 0 0 0 0 0 0 0 0 0 0 127 0" result="hardAlpha"/>
<feOffset dx="2" dy="-2"/>
<feGaussianBlur stdDeviation="2"/>
<feComposite in2="hardAlpha" operator="arithmetic" k2="-1" k3="1"/>
<feColorMatrix type="matrix" values="0 0 0 0 0 0 0 0 0 0 0 0 0 0 0 0 0 0 0.25 0"/>
<feBlend mode="normal" in2="shape" result="effect1_innerShadow"/>
<feColorMatrix in="SourceAlpha" type="matrix" values="0 0 0 0 0 0 0 0 0 0 0 0 0 0 0 0 0 0 127 0" result="hardAlpha"/>
<feOffset dx="-2" dy="2"/>
<feGaussianBlur stdDeviation="2"/>
<feComposite in2="hardAlpha" operator="arithmetic" k2="-1" k3="1"/>
<feColorMatrix type="matrix" values="0 0 0 0 1 0 0 0 0 0.9875 0 0 0 0 0.9875 0 0 0 0.25 0"/>
<feBlend mode="normal" in2="effect1_innerShadow" result="effect2_innerShadow"/>
</filter>
<filter id="filter2_i" x="289" y="447" width="232" height="11" filterUnits="userSpaceOnUse" color-interpolation-filters="sRGB">
<feFlood flood-opacity="0" result="BackgroundImageFix"/>
<feBlend mode="normal" in="SourceGraphic" in2="BackgroundImageFix" result="shape"/>
<feColorMatrix in="SourceAlpha" type="matrix" values="0 0 0 0 0 0 0 0 0 0 0 0 0 0 0 0 0 0 127 0" result="hardAlpha"/>
<feOffset dx="2" dy="-2"/>
<feGaussianBlur stdDeviation="2"/>
<feComposite in2="hardAlpha" operator="arithmetic" k2="-1" k3="1"/>
<feColorMatrix type="matrix" values="0 0 0 0 0 0 0 0 0 0 0 0 0 0 0 0 0 0 0.25 0"/>
<feBlend mode="normal" in2="shape" result="effect1_innerShadow"/>
</filter>
<filter id="filter3_i" x="377.304" y="426" width="143.022" height="11" filterUnits="userSpaceOnUse" color-interpolation-filters="sRGB">
<feFlood flood-opacity="0" result="BackgroundImageFix"/>
<feBlend mode="normal" in="SourceGraphic" in2="BackgroundImageFix" result="shape"/>
<feColorMatrix in="SourceAlpha" type="matrix" values="0 0 0 0 0 0 0 0 0 0 0 0 0 0 0 0 0 0 127 0" result="hardAlpha"/>
<feOffset dx="2" dy="-2"/>
<feGaussianBlur stdDeviation="2"/>
<feComposite in2="hardAlpha" operator="arithmetic" k2="-1" k3="1"/>
<feColorMatrix type="matrix" values="0 0 0 0 0 0 0 0 0 0 0 0 0 0 0 0 0 0 0.25 0"/>
<feBlend mode="normal" in2="shape" result="effect1_innerShadow"/>
</filter>
<filter id="filter4_ii" x="234" y="416" width="54" height="54" filterUnits="userSpaceOnUse" color-interpolation-filters="sRGB">
<feFlood flood-opacity="0" result="BackgroundImageFix"/>
<feBlend mode="normal" in="SourceGraphic" in2="BackgroundImageFix" result="shape"/>
<feColorMatrix in="SourceAlpha" type="matrix" values="0 0 0 0 0 0 0 0 0 0 0 0 0 0 0 0 0 0 127 0" result="hardAlpha"/>
<feOffset dx="2" dy="-2"/>
<feGaussianBlur stdDeviation="2"/>
<feComposite in2="hardAlpha" operator="arithmetic" k2="-1" k3="1"/>
<feColorMatrix type="matrix" values="0 0 0 0 0 0 0 0 0 0 0 0 0 0 0 0 0 0 0.25 0"/>
<feBlend mode="normal" in2="shape" result="effect1_innerShadow"/>
<feColorMatrix in="SourceAlpha" type="matrix" values="0 0 0 0 0 0 0 0 0 0 0 0 0 0 0 0 0 0 127 0" result="hardAlpha"/>
<feOffset dx="-2" dy="2"/>
<feGaussianBlur stdDeviation="2"/>
<feComposite in2="hardAlpha" operator="arithmetic" k2="-1" k3="1"/>
<feColorMatrix type="matrix" values="0 0 0 0 1 0 0 0 0 0.9875 0 0 0 0 0.9875 0 0 0 0.25 0"/>
<feBlend mode="normal" in2="effect1_innerShadow" result="effect2_innerShadow"/>
</filter>
<filter id="filter5_ii" x="249.714" y="430.286" width="23.1812" height="25.4286" filterUnits="userSpaceOnUse" color-interpolation-filters="sRGB">
<feFlood flood-opacity="0" result="BackgroundImageFix"/>
<feBlend mode="normal" in="SourceGraphic" in2="BackgroundImageFix" result="shape"/>
<feColorMatrix in="SourceAlpha" type="matrix" values="0 0 0 0 0 0 0 0 0 0 0 0 0 0 0 0 0 0 127 0" result="hardAlpha"/>
<feOffset dx="2" dy="-2"/>
<feGaussianBlur stdDeviation="2"/>
<feComposite in2="hardAlpha" operator="arithmetic" k2="-1" k3="1"/>
<feColorMatrix type="matrix" values="0 0 0 0 0 0 0 0 0 0 0 0 0 0 0 0 0 0 0.25 0"/>
<feBlend mode="normal" in2="shape" result="effect1_innerShadow"/>
<feColorMatrix in="SourceAlpha" type="matrix" values="0 0 0 0 0 0 0 0 0 0 0 0 0 0 0 0 0 0 127 0" result="hardAlpha"/>
<feOffset dx="-2" dy="2"/>
<feGaussianBlur stdDeviation="2"/>
<feComposite in2="hardAlpha" operator="arithmetic" k2="-1" k3="1"/>
<feColorMatrix type="matrix" values="0 0 0 0 1 0 0 0 0 0.9875 0 0 0 0 0.9875 0 0 0 0.25 0"/>
<feBlend mode="normal" in2="effect1_innerShadow" result="effect2_innerShadow"/>
</filter>
<filter id="filter6_ii" x="365" y="316" width="297" height="78" filterUnits="userSpaceOnUse" color-interpolation-filters="sRGB">
<feFlood flood-opacity="0" result="BackgroundImageFix"/>
<feBlend mode="normal" in="SourceGraphic" in2="BackgroundImageFix" result="shape"/>
<feColorMatrix in="SourceAlpha" type="matrix" values="0 0 0 0 0 0 0 0 0 0 0 0 0 0 0 0 0 0 127 0" result="hardAlpha"/>
<feOffset dx="2" dy="-2"/>
<feGaussianBlur stdDeviation="2"/>
<feComposite in2="hardAlpha" operator="arithmetic" k2="-1" k3="1"/>
<feColorMatrix type="matrix" values="0 0 0 0 0 0 0 0 0 0 0 0 0 0 0 0 0 0 0.25 0"/>
<feBlend mode="normal" in2="shape" result="effect1_innerShadow"/>
<feColorMatrix in="SourceAlpha" type="matrix" values="0 0 0 0 0 0 0 0 0 0 0 0 0 0 0 0 0 0 127 0" result="hardAlpha"/>
<feOffset dx="-2" dy="2"/>
<feGaussianBlur stdDeviation="2"/>
<feComposite in2="hardAlpha" operator="arithmetic" k2="-1" k3="1"/>
<feColorMatrix type="matrix" values="0 0 0 0 1 0 0 0 0 0.9875 0 0 0 0 0.9875 0 0 0 0.25 0"/>
<feBlend mode="normal" in2="effect1_innerShadow" result="effect2_innerShadow"/>
</filter>
<filter id="filter7_i" x="398" y="359" width="232" height="11" filterUnits="userSpaceOnUse" color-interpolation-filters="sRGB">
<feFlood flood-opacity="0" result="BackgroundImageFix"/>
<feBlend mode="normal" in="SourceGraphic" in2="BackgroundImageFix" result="shape"/>
<feColorMatrix in="SourceAlpha" type="matrix" values="0 0 0 0 0 0 0 0 0 0 0 0 0 0 0 0 0 0 127 0" result="hardAlpha"/>
<feOffset dx="2" dy="-2"/>
<feGaussianBlur stdDeviation="2"/>
<feComposite in2="hardAlpha" operator="arithmetic" k2="-1" k3="1"/>
<feColorMatrix type="matrix" values="0 0 0 0 0 0 0 0 0 0 0 0 0 0 0 0 0 0 0.25 0"/>
<feBlend mode="normal" in2="shape" result="effect1_innerShadow"/>
</filter>
<filter id="filter8_i" x="486.304" y="338" width="143.022" height="11" filterUnits="userSpaceOnUse" color-interpolation-filters="sRGB">
<feFlood flood-opacity="0" result="BackgroundImageFix"/>
<feBlend mode="normal" in="SourceGraphic" in2="BackgroundImageFix" result="shape"/>
<feColorMatrix in="SourceAlpha" type="matrix" values="0 0 0 0 0 0 0 0 0 0 0 0 0 0 0 0 0 0 127 0" result="hardAlpha"/>
<feOffset dx="2" dy="-2"/>
<feGaussianBlur stdDeviation="2"/>
<feComposite in2="hardAlpha" operator="arithmetic" k2="-1" k3="1"/>
<feColorMatrix type="matrix" values="0 0 0 0 0 0 0 0 0 0 0 0 0 0 0 0 0 0 0.25 0"/>
<feBlend mode="normal" in2="shape" result="effect1_innerShadow"/>
</filter>
<filter id="filter9_ii" x="633" y="328" width="54" height="54" filterUnits="userSpaceOnUse" color-interpolation-filters="sRGB">
<feFlood flood-opacity="0" result="BackgroundImageFix"/>
<feBlend mode="normal" in="SourceGraphic" in2="BackgroundImageFix" result="shape"/>
<feColorMatrix in="SourceAlpha" type="matrix" values="0 0 0 0 0 0 0 0 0 0 0 0 0 0 0 0 0 0 127 0" result="hardAlpha"/>
<feOffset dx="2" dy="-2"/>
<feGaussianBlur stdDeviation="2"/>
<feComposite in2="hardAlpha" operator="arithmetic" k2="-1" k3="1"/>
<feColorMatrix type="matrix" values="0 0 0 0 0 0 0 0 0 0 0 0 0 0 0 0 0 0 0.25 0"/>
<feBlend mode="normal" in2="shape" result="effect1_innerShadow"/>
<feColorMatrix in="SourceAlpha" type="matrix" values="0 0 0 0 0 0 0 0 0 0 0 0 0 0 0 0 0 0 127 0" result="hardAlpha"/>
<feOffset dx="-2" dy="2"/>
<feGaussianBlur stdDeviation="2"/>
<feComposite in2="hardAlpha" operator="arithmetic" k2="-1" k3="1"/>
<feColorMatrix type="matrix" values="0 0 0 0 1 0 0 0 0 0.9875 0 0 0 0 0.9875 0 0 0 0.25 0"/>
<feBlend mode="normal" in2="effect1_innerShadow" result="effect2_innerShadow"/>
</filter>
<filter id="filter10_ii" x="648.714" y="342.286" width="23.1812" height="25.4286" filterUnits="userSpaceOnUse" color-interpolation-filters="sRGB">
<feFlood flood-opacity="0" result="BackgroundImageFix"/>
<feBlend mode="normal" in="SourceGraphic" in2="BackgroundImageFix" result="shape"/>
<feColorMatrix in="SourceAlpha" type="matrix" values="0 0 0 0 0 0 0 0 0 0 0 0 0 0 0 0 0 0 127 0" result="hardAlpha"/>
<feOffset dx="2" dy="-2"/>
<feGaussianBlur stdDeviation="2"/>
<feComposite in2="hardAlpha" operator="arithmetic" k2="-1" k3="1"/>
<feColorMatrix type="matrix" values="0 0 0 0 0 0 0 0 0 0 0 0 0 0 0 0 0 0 0.25 0"/>
<feBlend mode="normal" in2="shape" result="effect1_innerShadow"/>
<feColorMatrix in="SourceAlpha" type="matrix" values="0 0 0 0 0 0 0 0 0 0 0 0 0 0 0 0 0 0 127 0" result="hardAlpha"/>
<feOffset dx="-2" dy="2"/>
<feGaussianBlur stdDeviation="2"/>
<feComposite in2="hardAlpha" operator="arithmetic" k2="-1" k3="1"/>
<feColorMatrix type="matrix" values="0 0 0 0 1 0 0 0 0 0.9875 0 0 0 0 0.9875 0 0 0 0.25 0"/>
<feBlend mode="normal" in2="effect1_innerShadow" result="effect2_innerShadow"/>
</filter>
<filter id="filter11_ii" x="234" y="158" width="453" height="48" filterUnits="userSpaceOnUse" color-interpolation-filters="sRGB">
<feFlood flood-opacity="0" result="BackgroundImageFix"/>
<feBlend mode="normal" in="SourceGraphic" in2="BackgroundImageFix" result="shape"/>
<feColorMatrix in="SourceAlpha" type="matrix" values="0 0 0 0 0 0 0 0 0 0 0 0 0 0 0 0 0 0 127 0" result="hardAlpha"/>
<feOffset dx="2" dy="-2"/>
<feGaussianBlur stdDeviation="2"/>
<feComposite in2="hardAlpha" operator="arithmetic" k2="-1" k3="1"/>
<feColorMatrix type="matrix" values="0 0 0 0 0 0 0 0 0 0 0 0 0 0 0 0 0 0 0.25 0"/>
<feBlend mode="normal" in2="shape" result="effect1_innerShadow"/>
<feColorMatrix in="SourceAlpha" type="matrix" values="0 0 0 0 0 0 0 0 0 0 0 0 0 0 0 0 0 0 127 0" result="hardAlpha"/>
<feOffset dx="-2" dy="2"/>
<feGaussianBlur stdDeviation="2"/>
<feComposite in2="hardAlpha" operator="arithmetic" k2="-1" k3="1"/>
<feColorMatrix type="matrix" values="0 0 0 0 1 0 0 0 0 0.9875 0 0 0 0 0.9875 0 0 0 0.25 0"/>
<feBlend mode="normal" in2="effect1_innerShadow" result="effect2_innerShadow"/>
</filter>
<filter id="filter12_i" x="313" y="175" width="351" height="11" filterUnits="userSpaceOnUse" color-interpolation-filters="sRGB">
<feFlood flood-opacity="0" result="BackgroundImageFix"/>
<feBlend mode="normal" in="SourceGraphic" in2="BackgroundImageFix" result="shape"/>
<feColorMatrix in="SourceAlpha" type="matrix" values="0 0 0 0 0 0 0 0 0 0 0 0 0 0 0 0 0 0 127 0" result="hardAlpha"/>
<feOffset dx="2" dy="-2"/>
<feGaussianBlur stdDeviation="2"/>
<feComposite in2="hardAlpha" operator="arithmetic" k2="-1" k3="1"/>
<feColorMatrix type="matrix" values="0 0 0 0 0 0 0 0 0 0 0 0 0 0 0 0 0 0 0.25 0"/>
<feBlend mode="normal" in2="shape" result="effect1_innerShadow"/>
</filter>
<filter id="filter13_ii" x="257" y="169" width="23.1812" height="25.4286" filterUnits="userSpaceOnUse" color-interpolation-filters="sRGB">
<feFlood flood-opacity="0" result="BackgroundImageFix"/>
<feBlend mode="normal" in="SourceGraphic" in2="BackgroundImageFix" result="shape"/>
<feColorMatrix in="SourceAlpha" type="matrix" values="0 0 0 0 0 0 0 0 0 0 0 0 0 0 0 0 0 0 127 0" result="hardAlpha"/>
<feOffset dx="2" dy="-2"/>
<feGaussianBlur stdDeviation="2"/>
<feComposite in2="hardAlpha" operator="arithmetic" k2="-1" k3="1"/>
<feColorMatrix type="matrix" values="0 0 0 0 0 0 0 0 0 0 0 0 0 0 0 0 0 0 0.25 0"/>
<feBlend mode="normal" in2="shape" result="effect1_innerShadow"/>
<feColorMatrix in="SourceAlpha" type="matrix" values="0 0 0 0 0 0 0 0 0 0 0 0 0 0 0 0 0 0 127 0" result="hardAlpha"/>
<feOffset dx="-2" dy="2"/>
<feGaussianBlur stdDeviation="2"/>
<feComposite in2="hardAlpha" operator="arithmetic" k2="-1" k3="1"/>
<feColorMatrix type="matrix" values="0 0 0 0 1 0 0 0 0 0.9875 0 0 0 0 0.9875 0 0 0 0.25 0"/>
<feBlend mode="normal" in2="effect1_innerShadow" result="effect2_innerShadow"/>
</filter>
<filter id="filter14_ii" x="256" y="228" width="297" height="78" filterUnits="userSpaceOnUse" color-interpolation-filters="sRGB">
<feFlood flood-opacity="0" result="BackgroundImageFix"/>
<feBlend mode="normal" in="SourceGraphic" in2="BackgroundImageFix" result="shape"/>
<feColorMatrix in="SourceAlpha" type="matrix" values="0 0 0 0 0 0 0 0 0 0 0 0 0 0 0 0 0 0 127 0" result="hardAlpha"/>
<feOffset dx="2" dy="-2"/>
<feGaussianBlur stdDeviation="2"/>
<feComposite in2="hardAlpha" operator="arithmetic" k2="-1" k3="1"/>
<feColorMatrix type="matrix" values="0 0 0 0 0 0 0 0 0 0 0 0 0 0 0 0 0 0 0.25 0"/>
<feBlend mode="normal" in2="shape" result="effect1_innerShadow"/>
<feColorMatrix in="SourceAlpha" type="matrix" values="0 0 0 0 0 0 0 0 0 0 0 0 0 0 0 0 0 0 127 0" result="hardAlpha"/>
<feOffset dx="-2" dy="2"/>
<feGaussianBlur stdDeviation="2"/>
<feComposite in2="hardAlpha" operator="arithmetic" k2="-1" k3="1"/>
<feColorMatrix type="matrix" values="0 0 0 0 1 0 0 0 0 0.9875 0 0 0 0 0.9875 0 0 0 0.25 0"/>
<feBlend mode="normal" in2="effect1_innerShadow" result="effect2_innerShadow"/>
</filter>
<filter id="filter15_i" x="289" y="271" width="232" height="11" filterUnits="userSpaceOnUse" color-interpolation-filters="sRGB">
<feFlood flood-opacity="0" result="BackgroundImageFix"/>
<feBlend mode="normal" in="SourceGraphic" in2="BackgroundImageFix" result="shape"/>
<feColorMatrix in="SourceAlpha" type="matrix" values="0 0 0 0 0 0 0 0 0 0 0 0 0 0 0 0 0 0 127 0" result="hardAlpha"/>
<feOffset dx="2" dy="-2"/>
<feGaussianBlur stdDeviation="2"/>
<feComposite in2="hardAlpha" operator="arithmetic" k2="-1" k3="1"/>
<feColorMatrix type="matrix" values="0 0 0 0 0 0 0 0 0 0 0 0 0 0 0 0 0 0 0.25 0"/>
<feBlend mode="normal" in2="shape" result="effect1_innerShadow"/>
</filter>
<filter id="filter16_i" x="377.304" y="250" width="143.022" height="11" filterUnits="userSpaceOnUse" color-interpolation-filters="sRGB">
<feFlood flood-opacity="0" result="BackgroundImageFix"/>
<feBlend mode="normal" in="SourceGraphic" in2="BackgroundImageFix" result="shape"/>
<feColorMatrix in="SourceAlpha" type="matrix" values="0 0 0 0 0 0 0 0 0 0 0 0 0 0 0 0 0 0 127 0" result="hardAlpha"/>
<feOffset dx="2" dy="-2"/>
<feGaussianBlur stdDeviation="2"/>
<feComposite in2="hardAlpha" operator="arithmetic" k2="-1" k3="1"/>
<feColorMatrix type="matrix" values="0 0 0 0 0 0 0 0 0 0 0 0 0 0 0 0 0 0 0.25 0"/>
<feBlend mode="normal" in2="shape" result="effect1_innerShadow"/>
</filter>
<filter id="filter17_ii" x="234" y="240" width="54" height="54" filterUnits="userSpaceOnUse" color-interpolation-filters="sRGB">
<feFlood flood-opacity="0" result="BackgroundImageFix"/>
<feBlend mode="normal" in="SourceGraphic" in2="BackgroundImageFix" result="shape"/>
<feColorMatrix in="SourceAlpha" type="matrix" values="0 0 0 0 0 0 0 0 0 0 0 0 0 0 0 0 0 0 127 0" result="hardAlpha"/>
<feOffset dx="2" dy="-2"/>
<feGaussianBlur stdDeviation="2"/>
<feComposite in2="hardAlpha" operator="arithmetic" k2="-1" k3="1"/>
<feColorMatrix type="matrix" values="0 0 0 0 0 0 0 0 0 0 0 0 0 0 0 0 0 0 0.25 0"/>
<feBlend mode="normal" in2="shape" result="effect1_innerShadow"/>
<feColorMatrix in="SourceAlpha" type="matrix" values="0 0 0 0 0 0 0 0 0 0 0 0 0 0 0 0 0 0 127 0" result="hardAlpha"/>
<feOffset dx="-2" dy="2"/>
<feGaussianBlur stdDeviation="2"/>
<feComposite in2="hardAlpha" operator="arithmetic" k2="-1" k3="1"/>
<feColorMatrix type="matrix" values="0 0 0 0 1 0 0 0 0 0.9875 0 0 0 0 0.9875 0 0 0 0.25 0"/>
<feBlend mode="normal" in2="effect1_innerShadow" result="effect2_innerShadow"/>
</filter>
<filter id="filter18_ii" x="249.714" y="254.286" width="23.1812" height="25.4286" filterUnits="userSpaceOnUse" color-interpolation-filters="sRGB">
<feFlood flood-opacity="0" result="BackgroundImageFix"/>
<feBlend mode="normal" in="SourceGraphic" in2="BackgroundImageFix" result="shape"/>
<feColorMatrix in="SourceAlpha" type="matrix" values="0 0 0 0 0 0 0 0 0 0 0 0 0 0 0 0 0 0 127 0" result="hardAlpha"/>
<feOffset dx="2" dy="-2"/>
<feGaussianBlur stdDeviation="2"/>
<feComposite in2="hardAlpha" operator="arithmetic" k2="-1" k3="1"/>
<feColorMatrix type="matrix" values="0 0 0 0 0 0 0 0 0 0 0 0 0 0 0 0 0 0 0.25 0"/>
<feBlend mode="normal" in2="shape" result="effect1_innerShadow"/>
<feColorMatrix in="SourceAlpha" type="matrix" values="0 0 0 0 0 0 0 0 0 0 0 0 0 0 0 0 0 0 127 0" result="hardAlpha"/>
<feOffset dx="-2" dy="2"/>
<feGaussianBlur stdDeviation="2"/>
<feComposite in2="hardAlpha" operator="arithmetic" k2="-1" k3="1"/>
<feColorMatrix type="matrix" values="0 0 0 0 1 0 0 0 0 0.9875 0 0 0 0 0.9875 0 0 0 0.25 0"/>
<feBlend mode="normal" in2="effect1_innerShadow" result="effect2_innerShadow"/>
</filter>
<filter id="filter19_ii" x="123" y="158.414" width="39" height="39" filterUnits="userSpaceOnUse" color-interpolation-filters="sRGB">
<feFlood flood-opacity="0" result="BackgroundImageFix"/>
<feBlend mode="normal" in="SourceGraphic" in2="BackgroundImageFix" result="shape"/>
<feColorMatrix in="SourceAlpha" type="matrix" values="0 0 0 0 0 0 0 0 0 0 0 0 0 0 0 0 0 0 127 0" result="hardAlpha"/>
<feOffset dx="2" dy="-2"/>
<feGaussianBlur stdDeviation="2"/>
<feComposite in2="hardAlpha" operator="arithmetic" k2="-1" k3="1"/>
<feColorMatrix type="matrix" values="0 0 0 0 0 0 0 0 0 0 0 0 0 0 0 0 0 0 0.25 0"/>
<feBlend mode="normal" in2="shape" result="effect1_innerShadow"/>
<feColorMatrix in="SourceAlpha" type="matrix" values="0 0 0 0 0 0 0 0 0 0 0 0 0 0 0 0 0 0 127 0" result="hardAlpha"/>
<feOffset dx="-2" dy="2"/>
<feGaussianBlur stdDeviation="2"/>
<feComposite in2="hardAlpha" operator="arithmetic" k2="-1" k3="1"/>
<feColorMatrix type="matrix" values="0 0 0 0 1 0 0 0 0 0.9875 0 0 0 0 0.9875 0 0 0 0.25 0"/>
<feBlend mode="normal" in2="effect1_innerShadow" result="effect2_innerShadow"/>
</filter>
<linearGradient id="paint0_linear" x1="137.565" y1="181" x2="137.565" y2="206.13" gradientUnits="userSpaceOnUse">
<stop stop-color="#00C0ED"/>
<stop offset="1" stop-color="#917AEB"/>
</linearGradient>
</defs>
</svg>
