<svg width="45" height="60" viewBox="0 0 45 60" fill="none" xmlns="http://www.w3.org/2000/svg">
<path d="M36.9141 52.4414H38.6719V54.1992H36.9141V52.4414Z" fill="white"/>
<path d="M2.63672 0C1.18289 0 0 1.18277 0 2.63672V5.27344H1.75781V2.63672C1.75781 2.15203 2.15203 1.75781 2.63672 1.75781H6.15234V52.4414H2.63672C2.15215 52.4414 1.75781 52.0472 1.75781 51.5625V7.03125H0V51.5625C0 53.0164 1.18277 54.1992 2.63672 54.1992H6.15234V60H8.09238L10.5469 58.9363L13.0013 60H14.9413V54.1992H35.1562V52.4414H7.91004V1.75781H43.0664V52.4414H40.4297V54.1992H44.8242V0H2.63672ZM13.1835 54.1992V58.1632L10.5468 57.0206L7.91004 58.1632V54.1992H13.1835Z" fill="white"/>
<path d="M20.2172 17.9442L16.037 28.9198L17.6797 29.5454L18.6865 26.902H23.3408L24.3377 29.5438L25.9823 28.9232L21.8385 17.9426L20.2172 17.9442ZM19.3559 25.1442L21.0243 20.7637L22.6773 25.1442H19.3559Z" fill="white"/>
<path d="M32.9263 22.1499C32.3394 21.7759 31.6438 21.5582 30.8978 21.5582C28.81 21.5582 27.1113 23.2568 27.1113 25.3446C27.1113 27.4324 28.81 29.131 30.8978 29.131C31.6438 29.131 32.3394 28.9132 32.9263 28.5393V29.5176H34.6841V21.1717H32.9263V22.1499ZM30.8979 27.373C29.7793 27.373 28.8693 26.4631 28.8693 25.3445C28.8693 24.226 29.7793 23.3159 30.8979 23.3159C32.0163 23.3159 32.9264 24.226 32.9264 25.3445C32.9264 26.4631 32.0163 27.373 30.8979 27.373Z" fill="white"/>
<path d="M11.4257 33.3983H39.5508V14.0623H11.4257V33.3983ZM13.1835 15.8201H37.793V31.6404H13.1835V15.8201Z" fill="white"/>
<path d="M39.5508 3.51562H41.3086V5.27344H39.5508V3.51562Z" fill="white"/>
<path d="M39.5508 7.03125H41.3086V8.78906H39.5508V7.03125Z" fill="white"/>
</svg>
