<svg width="98" height="98" viewBox="0 0 98 98" fill="none" xmlns="http://www.w3.org/2000/svg">
<rect y="57.3407" width="70" height="70" rx="15" transform="rotate(-55 0 57.3407)" fill="url(#paint0_linear)"/>
<path d="M47.0417 54.5521V58.4896C47.0417 61.7709 45.7292 63.0834 42.4479 63.0834H38.5104C35.2292 63.0834 33.9167 61.7709 33.9167 58.4896V54.5521C33.9167 51.2709 35.2292 49.9584 38.5104 49.9584H42.4479C45.7292 49.9584 47.0417 51.2709 47.0417 54.5521Z" fill="white"/>
<path d="M56.5208 47.0416C60.1452 47.0416 63.0833 44.1035 63.0833 40.4791C63.0833 36.8548 60.1452 33.9166 56.5208 33.9166C52.8964 33.9166 49.9583 36.8548 49.9583 40.4791C49.9583 44.1035 52.8964 47.0416 56.5208 47.0416Z" fill="white"/>
<path d="M52.5534 63.0826C52.1597 63.0826 51.7951 62.8638 51.6055 62.5284C51.4159 62.1784 51.4159 61.7701 51.6201 61.4201L53.0347 59.0576C53.3409 58.5326 54.0118 58.3722 54.5368 58.6784C55.0618 58.9847 55.2222 59.6555 54.9159 60.1805L54.6534 60.618C58.2555 59.6847 60.9097 56.418 60.9097 52.5388C60.9097 51.9409 61.4055 51.4451 62.0034 51.4451C62.6013 51.4451 63.0826 51.9409 63.0826 52.5534C63.0826 58.3576 58.3576 63.0826 52.5534 63.0826Z" fill="white"/>
<path d="M35.0104 45.5395C34.4125 45.5395 33.9167 45.0583 33.9167 44.4458C33.9167 38.6416 38.6417 33.9166 44.4459 33.9166C44.8542 33.9166 45.2042 34.1354 45.4084 34.4708C45.5979 34.8208 45.5979 35.2291 45.3938 35.5791L43.9792 37.927C43.6584 38.452 42.9875 38.627 42.4771 38.3062C41.9521 38 41.7917 37.3291 42.0979 36.8041L42.3604 36.3666C38.7729 37.3 36.1042 40.5666 36.1042 44.4458C36.1042 45.0583 35.6084 45.5395 35.0104 45.5395Z" fill="white"/>
<defs>
<linearGradient id="paint0_linear" x1="35" y1="57.3407" x2="12.5732" y2="97.3679" gradientUnits="userSpaceOnUse">
<stop stop-color="#00C0ED"/>
<stop offset="1" stop-color="#917AEB"/>
</linearGradient>
</defs>
</svg>
