<svg width="60" height="60" viewBox="0 0 60 60" fill="none" xmlns="http://www.w3.org/2000/svg">
<path d="M59.383 5.076C59.01 4.922 58.579 5.007 58.293 5.293L46 17.586V1C46 0.448 45.553 0 45 0H23C10.317 0 0 10.318 0 23C0 33.883 7.661 43.214 18.114 45.472L5.293 58.293C5.007 58.579 4.921 59.009 5.076 59.383C5.23 59.756 5.596 60 6 60H59C59.553 60 60 59.552 60 59V6C60 5.596 59.757 5.231 59.383 5.076ZM24 2.046C29.003 2.284 33.593 4.279 37.112 7.473L24 20.586V2.046ZM25 24V38.586L22 41.586V24H25ZM27 24H30V33.586L27 36.586V24ZM32 24H35V28.586L32 31.586V24ZM37 24H39.586L37 26.586V24ZM41.586 22H25.414L38.525 8.889C41.24 11.867 43.112 15.633 43.746 19.84L41.586 22ZM39.941 7.473L44 3.414V13.636C42.981 11.356 41.603 9.282 39.941 7.473ZM42.586 2L38.525 6.061C36.697 4.388 34.601 3.017 32.316 2H42.586ZM22 2.051V22H2.051C2.562 11.22 11.22 2.562 22 2.051ZM15 24V42.412C13.951 41.979 12.953 41.458 12 40.869V24H15ZM5 24V33.798C3.257 30.898 2.216 27.55 2.046 24H5ZM7 36.57V24H10V39.485C8.902 38.617 7.903 37.636 7 36.57ZM17 43.113V24H20V43.586L19.84 43.746C18.868 43.6 17.921 43.387 17 43.113ZM58 8.414V51H52C51.447 51 51 51.448 51 52V58H8.414L58 8.414ZM53 58V53H58V58H53Z" fill="white"/>
<path d="M8.2501 9.31068V14.2502H9.7501V9.00018H11.2501V12.0002C11.2501 12.1164 11.2771 12.2319 11.3288 12.3354L12.0788 13.8354C12.2063 14.0897 12.4658 14.2502 12.7501 14.2502H13.5001V12.7502H13.2136L12.7501 11.8232V9.00018H14.2501V7.50018H8.2501C8.0506 7.50018 7.8601 7.57893 7.71985 7.71993L6.21985 9.21993L7.28035 10.2804L8.2501 9.31068Z" fill="white"/>
</svg>
