<svg width="56" height="60" viewBox="0 0 56 60" fill="none" xmlns="http://www.w3.org/2000/svg">
<path d="M54.5582 12.5588C51.9393 9.06738 46.0943 8.10225 38.4473 9.8695C38.2833 9.47638 38.1139 9.09025 37.9393 8.71412C38.5586 8.04516 38.9307 7.18463 38.9939 6.27519C39.0571 5.36575 38.8076 4.46203 38.2867 3.71384C37.7659 2.96565 37.005 2.41793 36.1302 2.16149C35.2553 1.90505 34.3191 1.95529 33.4768 2.30387C31.7619 0.77625 29.9242 0 28.0044 0C25.7995 0 23.7063 1.01713 21.7829 3.02313C20.1717 4.70338 18.7544 7.005 17.5613 9.86938C9.9143 8.10238 4.06942 9.0675 1.45079 12.5586C-1.52783 16.5291 0.176169 23.0115 5.99667 30C5.67917 30.3813 5.37179 30.7633 5.07454 31.1463C4.2303 30.911 3.33213 30.9597 2.5183 31.285C1.70447 31.6102 1.02009 32.1939 0.5705 32.9462C0.120912 33.6985 -0.06896 34.5777 0.0301104 35.4485C0.129181 36.3193 0.511702 37.1334 1.11879 37.7655C-0.476206 41.6838 -0.365957 45.018 1.45067 47.4405C3.21242 49.7891 6.43292 50.995 10.6807 50.9949C12.7474 50.9949 15.0583 50.7082 17.5613 50.1297C18.7542 52.9941 20.1717 55.2959 21.7829 56.9761C23.7063 58.9829 25.7995 60 28.0044 60C30.2093 60 32.3025 58.9829 34.2259 56.9769C35.8369 55.2967 37.2543 52.9955 38.4472 50.1315C38.9821 50.2551 39.5104 50.3656 40.032 50.463C40.1424 51.4044 40.5835 52.2761 41.2767 52.9226C41.9699 53.569 42.8702 53.9483 43.817 53.9928C44.7638 54.0373 45.6957 53.7442 46.4465 53.1656C47.1973 52.587 47.7182 51.7606 47.9164 50.8336C50.9039 50.4279 53.1914 49.265 54.558 47.4414C57.5365 43.471 55.833 36.9886 50.0124 30C55.8328 23.0112 57.5365 16.529 54.5582 12.5588ZM52.9582 13.7587C55.2752 16.8474 53.6302 22.4263 48.6793 28.4705C46.4736 26.0688 44.0696 23.8571 41.4928 21.8587C41.023 18.2196 40.2272 14.7601 39.1707 11.7566C45.7842 10.2816 50.895 11.0083 52.9582 13.7589V13.7587ZM37.2207 47.7569C34.8688 47.1006 32.5664 46.2784 30.3309 45.2962C32.494 44.1797 34.5981 42.9524 36.6349 41.6194C37.513 41.0451 38.375 40.4539 39.2209 39.8456C38.7898 42.5367 38.1206 45.1843 37.2212 47.757L37.2207 47.7569ZM18.7872 47.7569C17.8877 45.1841 17.2184 42.5366 16.7872 39.8455C17.6312 40.4518 18.4932 41.043 19.3733 41.6193C21.4101 42.9524 23.5142 44.1797 25.6773 45.2962C23.4418 46.2784 21.1395 47.1007 18.7877 47.757L18.7872 47.7569ZM18.7872 12.2429C21.1391 12.8991 23.4414 13.7214 25.6769 14.7035C23.5139 15.8201 21.4097 17.0473 19.3729 18.3804C18.4948 18.9546 17.6328 19.5459 16.7869 20.1541C17.2184 17.4631 17.8879 14.8156 18.7877 12.243L18.7872 12.2429ZM20.4674 39.9454C19.0654 39.0286 17.6999 38.063 16.4009 37.0719C15.8716 32.3721 15.8716 27.6277 16.4009 22.9279C17.6999 21.9368 19.0655 20.971 20.4674 20.0543C22.8864 18.47 25.4038 17.0413 28.0044 15.777C30.6049 17.0414 33.1221 18.4701 35.5409 20.0545C36.9429 20.9713 38.3084 21.9369 39.6074 22.928C39.8729 25.276 40.0055 27.6371 40.0044 30C40.0055 32.3629 39.8729 34.724 39.6074 37.072C38.3084 38.0631 36.9428 39.0289 35.5409 39.9456C33.1221 41.5299 30.6048 42.9586 28.0044 44.223C25.404 42.9586 22.8867 41.5299 20.4679 39.9455L20.4674 39.9454ZM14.2218 35.3343C12.2374 33.6916 10.3731 31.9089 8.64329 30C10.3735 28.091 12.2379 26.3081 14.2224 24.665C14.0787 26.4204 14.0044 28.206 14.0044 30C14.0044 31.794 14.0787 33.579 14.2223 35.3344L14.2218 35.3343ZM37.2212 12.243C38.1206 14.8157 38.7899 17.4633 39.2212 20.1544C38.3772 19.5481 37.5151 18.9569 36.635 18.3806C34.5983 17.0475 32.4941 15.8202 30.331 14.7036C32.5667 13.7215 34.8692 12.8993 37.2212 12.243ZM41.7865 24.6656C43.7711 26.3083 45.6356 28.091 47.3655 30C45.6354 31.909 43.7709 33.6919 41.7864 35.335C41.9302 33.5796 42.0044 31.794 42.0044 30C42.0044 28.206 41.9302 26.421 41.7865 24.6656ZM37.0044 6C37.0044 6.39556 36.8871 6.78224 36.6674 7.11114C36.4476 7.44004 36.1352 7.69638 35.7698 7.84776C35.4043 7.99913 35.0022 8.03874 34.6142 7.96157C34.2263 7.8844 33.8699 7.69392 33.5902 7.41421C33.3105 7.13451 33.12 6.77814 33.0428 6.39018C32.9657 6.00222 33.0053 5.60009 33.1567 5.23463C33.308 4.86918 33.5644 4.55682 33.8933 4.33706C34.2222 4.1173 34.6089 4 35.0044 4C35.5347 4.00063 36.043 4.21154 36.4179 4.58648C36.7929 4.96142 37.0038 5.46976 37.0044 6ZM28.0044 2C29.3129 2 30.6033 2.51975 31.8509 3.54362C31.3245 4.21841 31.0285 5.04433 31.0065 5.8999C30.9845 6.75546 31.2377 7.59549 31.7288 8.29641C32.2199 8.99733 32.923 9.52213 33.7347 9.79361C34.5463 10.0651 35.4237 10.0689 36.2377 9.8045C36.3222 9.99108 36.4055 10.1798 36.4877 10.3708C33.5777 11.201 30.7405 12.2678 28.0044 13.5604C25.2679 12.2675 22.4302 11.2005 19.5198 10.3701C21.7997 5.0345 24.8587 2 28.0044 2ZM3.05067 13.7587C5.11379 11.0087 10.2244 10.2815 16.8382 11.7568C15.7819 14.7598 14.986 18.2185 14.5163 21.8576C11.9396 23.8565 9.53556 26.0684 7.32954 28.4701C2.37867 22.4265 0.733543 16.8475 3.05067 13.7587ZM4.00442 33C4.39998 33 4.78666 33.1173 5.11556 33.3371C5.44446 33.5568 5.7008 33.8692 5.85218 34.2346C6.00355 34.6001 6.04316 35.0022 5.96599 35.3902C5.88882 35.7781 5.69834 36.1345 5.41863 36.4142C5.13893 36.6939 4.78256 36.8844 4.3946 36.9616C4.00664 37.0387 3.6045 36.9991 3.23905 36.8478C2.8736 36.6964 2.56124 36.44 2.34148 36.1111C2.12172 35.7822 2.00442 35.3956 2.00442 35C2.00505 34.4698 2.21596 33.9614 2.5909 33.5865C2.96584 33.2115 3.47418 33.0006 4.00442 33ZM3.05079 46.2414C1.43117 44.0811 1.95079 41.1664 2.84854 38.8289C3.70287 39.0873 4.61909 39.0523 5.45127 38.7297C6.28345 38.407 6.98375 37.8152 7.44061 37.0485C7.89748 36.2817 8.08464 35.3841 7.97229 34.4987C7.85995 33.6132 7.45455 32.7909 6.82067 32.1625C6.9865 31.9512 7.15604 31.7401 7.32929 31.529C9.53504 33.931 11.9391 36.143 14.516 38.1415C14.9858 41.7806 15.7817 45.2401 16.8382 48.2436C10.2248 49.7185 5.11392 48.9917 3.05079 46.2414ZM28.0044 58C24.8587 58 21.7997 54.9655 19.5198 49.6297C22.4303 48.7995 25.2679 47.7326 28.0044 46.4396C30.741 47.7325 33.5786 48.7994 36.489 49.6299C34.2092 54.9655 31.1502 58 28.0044 58ZM44.0044 52C43.6089 52 43.2222 51.8827 42.8933 51.6629C42.5644 51.4432 42.308 51.1308 42.1567 50.7654C42.0053 50.3999 41.9657 49.9978 42.0428 49.6098C42.12 49.2219 42.3105 48.8655 42.5902 48.5858C42.8699 48.3061 43.2263 48.1156 43.6142 48.0384C44.0022 47.9613 44.4043 48.0009 44.7698 48.1522C45.1352 48.3036 45.4476 48.56 45.6674 48.8889C45.8871 49.2178 46.0044 49.6044 46.0044 50C46.0038 50.5302 45.7929 51.0386 45.4179 51.4135C45.043 51.7885 44.5347 51.9994 44.0044 52ZM52.9578 46.2416C51.9453 47.5929 50.1819 48.4774 47.8287 48.8274C47.5868 48.0394 47.1074 47.3454 46.4561 46.8403C45.8048 46.3351 45.0133 46.0435 44.19 46.0054C43.3666 45.9672 42.5516 46.1843 41.8563 46.627C41.161 47.0697 40.6195 47.7164 40.3058 48.4786C39.932 48.4076 39.5537 48.3291 39.1708 48.243C40.227 45.2401 41.0228 41.7814 41.4925 38.1424C44.0693 36.1436 46.4733 33.9316 48.6793 31.5299C53.6302 37.5735 55.2752 43.1525 52.9578 46.2416Z" fill="white"/>
<path d="M28.0045 22C26.4222 22 24.8755 22.4692 23.5599 23.3482C22.2443 24.2273 21.2189 25.4767 20.6134 26.9385C20.0079 28.4003 19.8495 30.0089 20.1582 31.5607C20.4669 33.1126 21.2288 34.538 22.3476 35.6569C23.4664 36.7757 24.8919 37.5376 26.4437 37.8463C27.9956 38.155 29.6041 37.9965 31.0659 37.391C32.5277 36.7855 33.7772 35.7602 34.6562 34.4446C35.5353 33.129 36.0045 31.5823 36.0045 30C36.0021 27.879 35.1585 25.8456 33.6587 24.3458C32.1589 22.846 30.1255 22.0024 28.0045 22ZM28.0045 36C26.8178 36 25.6577 35.6481 24.671 34.9888C23.6843 34.3295 22.9153 33.3925 22.4612 32.2961C22.0071 31.1997 21.8882 29.9933 22.1197 28.8295C22.3513 27.6656 22.9227 26.5965 23.7618 25.7574C24.6009 24.9182 25.67 24.3468 26.8339 24.1153C27.9978 23.8838 29.2042 24.0026 30.3006 24.4567C31.3969 24.9108 32.334 25.6799 32.9933 26.6666C33.6526 27.6533 34.0045 28.8133 34.0045 30C34.0026 31.5907 33.3699 33.1158 32.2451 34.2406C31.1203 35.3655 29.5952 35.9982 28.0045 36Z" fill="white"/>
</svg>
