<svg width="60" height="61" viewBox="0 0 60 61" fill="none" xmlns="http://www.w3.org/2000/svg">
<path d="M59.9999 30.0001C60.0219 20.2643 55.2953 11.1295 47.3349 5.52404L47.3793 5.49621L46.0561 4.6549C36.2519 -1.55163 23.7485 -1.55163 13.9443 4.6549L12.6211 5.50011L12.665 5.52795C4.72216 11.1481 0 20.2735 0 30.004C0 39.7344 4.72216 48.8599 12.665 54.48L12.6211 54.5079L13.9443 55.3492C23.7485 61.5557 36.2519 61.5557 46.0561 55.3492L47.3793 54.5079L47.3349 54.48C55.2963 48.8736 60.0233 39.7374 59.9999 30.0001ZM57.9692 29.0001H49.9833C49.7992 20.6139 47.3154 13.086 43.4413 7.79991C44.1318 7.45714 44.8115 7.08361 45.4799 6.67882C53.0155 11.6549 57.6708 19.9752 57.9692 29.0001ZM42.808 54.8877C42.4472 55.0738 42.0864 55.2569 41.7192 55.4258C41.4921 55.5259 41.2631 55.626 41.0341 55.7261C40.6879 55.875 40.3339 56.0201 39.9872 56.1538C39.8691 56.1988 39.7499 56.2398 39.6323 56.2827C40.5405 55.5259 41.3852 54.6954 42.1572 53.7998C42.6259 54.023 43.0961 54.2398 43.5571 54.4942C43.5043 54.524 43.457 54.5581 43.4003 54.587C43.2001 54.691 42.9999 54.7871 42.808 54.8877ZM18.9663 55.7251C18.7373 55.625 18.5083 55.5308 18.2812 55.4248C17.914 55.2559 17.5532 55.0728 17.1924 54.8868C16.9922 54.7871 16.7973 54.687 16.602 54.587C16.5493 54.5581 16.5019 54.524 16.4453 54.4942C16.9033 54.2408 17.374 54.024 17.8452 53.8008C18.6176 54.6963 19.4619 55.5269 20.3701 56.2837C20.2519 56.2408 20.1333 56.1997 20.0151 56.1548C19.6611 56.0191 19.312 55.8741 18.9663 55.7251ZM17.1924 5.11193C17.5532 4.9259 17.914 4.74328 18.2812 4.57385C18.5083 4.47424 18.7373 4.37414 18.9663 4.27404C19.312 4.12512 19.666 3.9801 20.0132 3.84582C20.1313 3.8009 20.25 3.75988 20.3681 3.71691C19.4599 4.47424 18.6152 5.30431 17.8432 6.19982C17.374 5.97716 16.9043 5.75988 16.4433 5.50597C16.4961 5.47619 16.5429 5.44201 16.6001 5.4132C16.8003 5.3092 17 5.213 17.1924 5.11193ZM41.0341 4.27502C41.2631 4.37512 41.4921 4.46887 41.7192 4.57482C42.0864 4.74426 42.4472 4.92687 42.808 5.11291C43.0082 5.213 43.2079 5.3131 43.3984 5.4132C43.4511 5.44201 43.498 5.47619 43.5551 5.50597C43.0971 5.7589 42.6259 5.97619 42.1552 6.19884C41.3828 5.30382 40.5385 4.47326 39.6303 3.71594C39.748 3.75891 39.8671 3.79992 39.9853 3.84484C40.3393 3.98107 40.6879 4.12609 41.0341 4.27502ZM29 57.9551C25.3847 57.5205 22.0678 55.7339 19.7153 52.9551C22.6748 51.7789 25.8169 51.126 29 51.0259V57.9551ZM31 51.0259C34.1835 51.128 37.3251 51.7813 40.2851 52.958C37.9326 55.7373 34.6157 57.5235 31 57.958V51.0259ZM33 37.0001V39.0001H27V37.0001H25V38.647C24.4209 38.3101 23.8769 37.9161 23.3759 37.4708C24.0507 34.5455 26.4731 32.3477 29.4502 31.96L29.5502 31.9552C29.7011 31.9678 29.8501 32.0001 30 32.0001C30.1503 32.0001 30.3002 31.9678 30.4492 31.9552H30.4931C33.4912 32.3248 35.9394 34.5269 36.624 37.4688C36.1235 37.9146 35.5795 38.3091 34.9999 38.647V37.0001H33ZM30.4472 29.9552C30.146 29.9337 29.8432 29.9337 29.5419 29.9552C27.9912 29.7183 26.8847 28.3267 27.0034 26.7623C27.122 25.1983 28.4257 23.9893 29.9946 23.9893C31.5634 23.9893 32.8676 25.1983 32.9863 26.7623C33.1049 28.3267 31.998 29.7183 30.4472 29.9552ZM38.1611 35.7598C37.2744 33.5108 35.5556 31.6895 33.3613 30.6749C34.8881 29.2867 35.4057 27.1026 34.663 25.1768C33.9208 23.2511 32.0712 21.9791 30.0073 21.9752C27.9433 21.9713 26.0893 23.2359 25.3393 25.1588C24.5898 27.0816 25.0981 29.2677 26.6201 30.6622C24.4316 31.6871 22.7197 33.5123 21.8374 35.7618C18.8974 31.6104 19.5429 25.9132 23.3369 22.5245C27.1313 19.1358 32.8652 19.1358 36.6591 22.5245C40.4536 25.9132 41.0991 31.6104 38.1591 35.7618L38.1611 35.7598ZM29 8.97423C25.8169 8.87218 22.6753 8.21837 19.7153 7.0421C22.0678 4.26281 25.3847 2.47619 29 2.04211V8.97423ZM31 2.04504C34.6152 2.47961 37.9326 4.26574 40.2851 7.04503C37.3251 8.2213 34.1835 8.87413 31 8.97423V2.04504ZM18.3759 8.64513C21.7422 10.0738 25.3452 10.8634 29 10.9742V18.0509C23.1704 18.545 18.5454 23.17 18.0512 29.0001H12.0161C12.2002 20.8531 14.6333 13.5841 18.3759 8.6461V8.64513ZM18.0512 31.0001C18.5454 36.8301 23.1704 41.4546 29 41.9488V49.0259C25.3452 49.1363 21.7422 49.9263 18.3759 51.355C14.6333 46.4161 12.2002 39.147 12.0161 31.0001H18.0512ZM41.624 51.354C38.2578 49.9258 34.6552 49.1363 31 49.0259V41.9488C36.83 41.4546 41.455 36.8301 41.9492 31.0001H47.9843C47.8002 39.147 45.3671 46.4161 41.624 51.354ZM41.9492 29.0001C41.455 23.17 36.83 18.545 31 18.0509V10.9742C34.6552 10.8639 38.2582 10.0738 41.624 8.64513C45.3671 13.5841 47.8002 20.8531 47.9843 29.0001H41.9492ZM14.52 6.68224C15.1889 7.08898 15.8691 7.46105 16.5591 7.80382C12.685 13.086 10.2002 20.6139 10.0171 29.0001H2.03125C2.33056 19.9762 6.98583 11.6573 14.52 6.68224ZM2.03125 31.0001H10.0171C10.2012 39.3858 12.685 46.9141 16.5591 52.1997C15.8677 52.5425 15.188 52.9165 14.52 53.3208C6.98485 48.3453 2.32959 40.025 2.03125 31.0001ZM45.4799 53.3179C44.811 52.9112 44.1313 52.5391 43.4413 52.1958C47.3154 46.9141 49.7992 39.3858 49.9833 30.9962H57.9692C57.6708 40.0211 53.0155 48.3418 45.4799 53.3179Z" fill="white"/>
</svg>
